<svg width="135" height="138" viewBox="0 0 135 138" fill="none" xmlns="http://www.w3.org/2000/svg">
<g clip-path="url(#clip0_956_14086)">
<path d="M29.8303 94.4155C30.4166 94.2239 31.0546 94.2695 31.6077 94.5425C32.1606 94.8155 32.5849 95.2937 32.7893 95.8755C32.9938 96.4574 32.9622 97.0968 32.7014 97.6558L32.6985 97.6606C30.8564 101.363 29.9002 105.444 29.9026 109.58V123.109C29.9026 123.615 29.9115 124.054 30.345 124.406C30.8074 124.781 31.7991 125.094 33.9348 125.094H65.3909C66.0165 125.094 66.6164 125.342 67.0588 125.785C67.5013 126.227 67.7502 126.828 67.7502 127.454C67.7501 128.079 67.5012 128.679 67.0588 129.122C66.6164 129.564 66.0165 129.813 65.3909 129.813H33.9348C30.3832 129.813 28.1826 128.925 26.8723 127.617C25.5622 126.308 25.1838 124.62 25.1838 123.109V109.58C25.1798 104.719 26.3045 99.9238 28.469 95.5718L28.4709 95.5669C28.756 95.0201 29.2442 94.6072 29.8303 94.4155Z" fill="white" stroke="#FFF4F4" stroke-width="0.5"/>
<path d="M47.9883 65.918C49.159 67.078 50.4297 68.1324 51.7861 69.0684L52.9541 69.874L51.6309 70.3857C51.282 70.5205 50.8953 70.6488 50.4639 70.7705L50.457 70.7725C43.6994 72.6066 37.433 75.919 32.1113 80.4697C23.4302 87.9513 18.6798 97.8208 18.6797 108.26V129.319C18.672 130.295 19.051 131.234 19.7344 131.93C20.4177 132.626 21.35 133.021 22.3252 133.031H112.675C113.65 133.021 114.581 132.624 115.265 131.929C115.948 131.233 116.328 130.295 116.32 129.319V108.26C116.32 97.8197 111.571 87.9502 102.89 80.4697L102.389 80.0469C97.1766 75.7133 91.0916 72.5491 84.5449 70.7725L84.5205 70.7656L84.4971 70.7578C84.0925 70.6189 83.7276 70.4768 83.3965 70.332L82.166 69.7939L83.2695 69.0283C84.5743 68.1229 85.7993 67.1077 86.9316 65.9941L87.2168 65.7139L87.6084 65.7949C87.9674 65.8685 88.3402 65.9557 88.7217 66.0625L88.7393 66.0674L88.7559 66.0723C107.069 72.1301 122.039 88.0931 122.039 108.26V129.311C122.049 131.802 121.07 134.196 119.316 135.966C117.563 137.736 115.178 138.737 112.687 138.75H22.3135C19.8217 138.738 17.4364 137.737 15.6826 135.967C13.9289 134.197 12.95 131.802 12.9609 129.311V108.26C12.9611 88.1003 27.9245 72.1422 46.2275 66.0781C46.5647 65.943 46.9089 65.826 47.2588 65.7285L47.6787 65.6113L47.9883 65.918Z" fill="white" stroke="white" stroke-width="1.5"/>
<path d="M68.127 20.9922C74.5983 21.1535 80.7708 23.7942 85.3594 28.3828C90.0959 33.1194 92.7569 39.5437 92.7578 46.2422L92.7539 46.71C92.6644 51.542 91.1896 56.2506 88.501 60.2744C85.7257 64.428 81.7812 67.6654 77.166 69.5771C72.5508 71.4889 67.4718 71.9892 62.5723 71.0146C57.6728 70.04 53.172 67.6349 49.6396 64.1025C46.1073 60.5702 43.7021 56.0694 42.7275 51.1699C41.753 46.2704 42.2533 41.1914 44.165 36.5762C46.0768 31.961 49.3142 28.0165 53.4678 25.2412C57.6214 22.4659 62.5045 20.9844 67.5 20.9844L68.127 20.9922ZM74.7861 28.6523C71.3073 27.2114 67.4792 26.8348 63.7861 27.5693C60.0929 28.304 56.6998 30.1166 54.0371 32.7793C51.3745 35.442 49.5618 38.8351 48.8271 42.5283C48.0926 46.2214 48.4692 50.0495 49.9102 53.5283C51.3512 57.0072 53.7919 59.9803 56.9229 62.0723C60.0535 64.1641 63.7338 65.2801 67.499 65.2803C72.5473 65.2758 77.3873 63.2689 80.957 59.6992C84.5265 56.1297 86.5343 51.2902 86.5391 46.2422C86.5391 42.4767 85.4221 38.796 83.3301 35.665C81.2381 32.5341 78.265 30.0934 74.7861 28.6523Z" fill="white" stroke="white" stroke-width="2"/>
<path d="M72.7734 83.7109C73.4655 83.7109 74.1288 83.9862 74.6182 84.4756C75.1075 84.9649 75.3828 85.6283 75.3828 86.3203C75.3828 87.0124 75.1075 87.6757 74.6182 88.165C74.1288 88.6544 73.4655 88.9297 72.7734 88.9297H62.2266C61.5345 88.9297 60.8712 88.6544 60.3818 88.165C59.8925 87.6757 59.6172 87.0124 59.6172 86.3203C59.6172 85.6283 59.8925 84.9649 60.3818 84.4756C60.8712 83.9862 61.5345 83.7109 62.2266 83.7109H72.7734ZM76.1123 75.2734C76.8044 75.2734 77.4687 75.5487 77.958 76.0381C78.4471 76.5274 78.7217 77.1909 78.7217 77.8828C78.7217 78.5747 78.4471 79.2382 77.958 79.7275C77.4687 80.2169 76.8044 80.4922 76.1123 80.4922H58.8877C58.1956 80.4922 57.5313 80.2169 57.042 79.7275C56.5529 79.2382 56.2783 78.5747 56.2783 77.8828C56.2783 77.1909 56.5529 76.5274 57.042 76.0381C57.5313 75.5487 58.1956 75.2734 58.8877 75.2734H76.1123ZM34.8047 43.6328C35.4967 43.6328 36.1601 43.9081 36.6494 44.3975C37.1388 44.8868 37.4141 45.5501 37.4141 46.2422C37.4141 46.9342 37.1388 47.5976 36.6494 48.0869C36.1601 48.5763 35.4967 48.8516 34.8047 48.8516H26.3672C25.6751 48.8516 25.0118 48.5763 24.5225 48.0869C24.0331 47.5976 23.7578 46.9342 23.7578 46.2422C23.7578 45.5501 24.0331 44.8868 24.5225 44.3975C25.0118 43.9081 25.6751 43.6328 26.3672 43.6328H34.8047ZM108.633 43.6328C109.325 43.6328 109.988 43.9081 110.478 44.3975C110.967 44.8868 111.242 45.5501 111.242 46.2422C111.242 46.9342 110.967 47.5976 110.478 48.0869C109.988 48.5763 109.325 48.8516 108.633 48.8516H100.195C99.5033 48.8516 98.8399 48.5763 98.3506 48.0869C97.8612 47.5976 97.5859 46.9342 97.5859 46.2422C97.5859 45.5501 97.8612 44.8868 98.3506 44.3975C98.8399 43.9081 99.5033 43.6328 100.195 43.6328H108.633ZM38.4121 14.5205C38.7584 14.5236 39.1007 14.5957 39.4189 14.7324C39.7347 14.8681 40.0203 15.0651 40.2598 15.3115L46.2266 21.2773H46.2256C46.472 21.5168 46.669 21.8024 46.8047 22.1182C46.9414 22.4365 47.0136 22.7795 47.0166 23.126C47.0196 23.4723 46.9534 23.8161 46.8223 24.1367C46.6911 24.4573 46.4969 24.7482 46.252 24.9932C46.007 25.2381 45.7161 25.4323 45.3955 25.5635C45.0749 25.6946 44.7311 25.7608 44.3848 25.7578C44.0383 25.7548 43.6953 25.6827 43.377 25.5459C43.0612 25.4102 42.7756 25.2132 42.5361 24.9668L36.5703 19.001V19C36.3242 18.7606 36.1268 18.4757 35.9912 18.1602C35.8545 17.8418 35.7823 17.4988 35.7793 17.1523C35.7763 16.806 35.8425 16.4622 35.9736 16.1416C36.1048 15.821 36.299 15.5301 36.5439 15.2852C36.7889 15.0402 37.0807 14.846 37.4014 14.7148C37.7219 14.5838 38.0658 14.5175 38.4121 14.5205ZM96.5879 14.5205C96.9344 14.5175 97.2789 14.5836 97.5996 14.7148C97.9201 14.846 98.2111 15.0402 98.4561 15.2852C98.701 15.5301 98.8952 15.821 99.0264 16.1416C99.1575 16.4622 99.2237 16.806 99.2207 17.1523C99.2177 17.4988 99.1455 17.8418 99.0088 18.1602C98.8731 18.4759 98.6751 18.7605 98.4287 19L98.4297 19.001L92.4639 24.9668C92.2218 25.2096 91.9339 25.4019 91.6172 25.5332C91.3795 25.6317 91.1292 25.6948 90.874 25.7197L90.6182 25.7314C90.1023 25.7312 89.5978 25.5786 89.1689 25.292C88.74 25.0053 88.4054 24.5978 88.208 24.1211C88.0106 23.6444 87.9589 23.1194 88.0596 22.6133C88.1602 22.1073 88.4087 21.6422 88.7734 21.2773L94.7402 15.3115C94.9797 15.0651 95.2653 14.8681 95.5811 14.7324C95.8993 14.5957 96.2416 14.5236 96.5879 14.5205ZM67.5 2.5C68.192 2.5 68.8554 2.7753 69.3447 3.26465C69.8341 3.754 70.1094 4.41733 70.1094 5.10938V13.5469C70.1094 14.2389 69.8341 14.9022 69.3447 15.3916C68.8554 15.881 68.192 16.1562 67.5 16.1562C66.808 16.1562 66.1446 15.881 65.6553 15.3916C65.1659 14.9022 64.8906 14.2389 64.8906 13.5469V5.10938C64.8906 4.41733 65.1659 3.754 65.6553 3.26465C66.1446 2.7753 66.808 2.5 67.5 2.5Z" fill="white" stroke="white"/>
<path d="M35.8594 86.875C37.3005 86.875 38.4688 88.0433 38.4688 89.4844C38.4688 90.9255 37.3005 92.0938 35.8594 92.0938C34.4183 92.0938 33.25 90.9255 33.25 89.4844C33.25 88.0433 34.4183 86.875 35.8594 86.875Z" fill="white" stroke="#FFF4F4"/>
</g>
<defs>
<clipPath id="clip0_956_14086">
<rect width="135" height="138" fill="white"/>
</clipPath>
</defs>
</svg>
