<svg width="139" height="139" viewBox="0 0 139 139" fill="none" xmlns="http://www.w3.org/2000/svg">
<g clip-path="url(#clip0_1070_14024)">
<path d="M96.6608 124.477C96.6608 120.619 96.8419 120.874 93.0207 119.298L89.7028 117.926C83.7088 123.43 81.8182 123.782 79.6985 121.574C77.7147 119.511 78.1781 117.5 81.4054 114.169C82.649 112.883 83.6262 111.741 83.5756 111.629C83.5224 111.514 83.0271 110.348 82.4759 109.035C80.6785 104.753 81.0885 105.07 77.1396 104.916C72.2586 104.724 70.5198 103.201 71.2574 99.7579C71.766 97.3826 73.116 96.661 77.0464 96.661C80.8409 96.661 80.6652 96.7702 82.0125 93.5668C83.7221 89.506 83.7594 89.8095 81.251 87.2212C78.5509 84.4279 78.1115 83.2643 78.953 81.1127C80.3057 77.6563 83.5144 77.6883 87.1678 81.1953C89.804 83.7223 89.5031 83.6744 93.1858 82.1432C96.7407 80.6654 96.6608 80.7799 96.6581 77.1291C96.6528 72.4212 98.3916 70.4401 101.808 71.2629C104.122 71.8194 104.756 73.015 104.916 77.1371C105.073 81.166 104.673 80.6148 108.657 82.2817L111.882 83.6291C116.683 78.9958 116.994 78.7827 118.161 78.6522C120.847 78.346 122.906 80.1621 122.874 82.8116C122.855 84.2762 122.876 84.2415 119.306 88.1879L117.937 89.7003C120.922 96.9007 120.584 96.6557 124.354 96.6344C128.167 96.6131 129.643 97.3693 130.26 99.662C131.163 103.023 129.012 104.916 124.285 104.916C120.589 104.916 120.775 104.777 119.162 108.694L117.878 111.805C123.113 117.253 123.518 118.347 122.488 120.461C120.799 123.926 118.011 123.849 114.257 120.232C111.479 117.559 112.153 117.689 108.745 119.162C107.216 119.822 105.73 120.36 105.443 120.36C104.945 120.36 104.916 120.552 104.916 123.707C104.916 127.702 104.537 128.785 102.78 129.827C102.117 130.221 101.268 130.479 100.636 130.479C99.9281 130.479 99.2677 130.25 98.594 129.768C96.9404 128.586 96.6635 127.829 96.6608 124.477ZM88.7008 100.856C88.7008 104.014 89.9551 107.042 92.1878 109.274C94.4204 111.507 97.4486 112.761 100.606 112.761C103.764 112.761 106.792 111.507 109.024 109.274C111.257 107.042 112.511 104.014 112.511 100.856C112.511 97.6986 111.257 94.6704 109.024 92.4377C106.792 90.2051 103.764 88.9508 100.606 88.9508C97.4486 88.9508 94.4204 90.2051 92.1878 92.4377C89.9551 94.6704 88.7008 97.6986 88.7008 100.856Z" fill="white" fill-opacity="0.988235"/>
<path d="M35.1707 39.8041C35.2468 31.5422 38.5823 23.6446 44.4514 17.8293C50.3206 12.014 58.2486 8.75146 66.5109 8.75146C74.7731 8.75146 82.7012 12.014 88.5704 17.8293C94.4395 23.6446 97.775 31.5422 97.8511 39.8041C97.775 48.0661 94.4395 55.9637 88.5704 61.779C82.7012 67.5943 74.7731 70.8568 66.5109 70.8568C58.2486 70.8568 50.3206 67.5943 44.4514 61.779C38.5823 55.9637 35.2468 48.0661 35.1707 39.8041ZM43.5956 39.8018C43.5956 45.8848 46.0121 51.7188 50.3135 56.0202C54.6149 60.3216 60.4488 62.7381 66.5319 62.7381C72.615 62.7381 78.449 60.3216 82.7504 56.0202C87.0518 51.7188 89.4683 45.8848 89.4683 39.8018C89.4683 33.7187 87.0518 27.8847 82.7504 23.5833C78.449 19.2819 72.615 16.8654 66.5319 16.8654C60.4488 16.8654 54.6149 19.2819 50.3135 23.5833C46.0121 27.8847 43.5956 33.7187 43.5956 39.8018Z" fill="white" fill-opacity="0.988235"/>
<path d="M8.94707 118.073C8.21213 115.471 8.35326 105.472 9.17075 102.434C12.1132 91.4926 25.1824 82.4709 44.1098 78.3115C52.6122 76.4449 65.977 75.2866 68.2005 76.2266C70.4346 77.1692 71.4358 79.8906 70.3308 82.0129C69.3295 83.9328 68.7091 84.1245 62.5446 84.4094C38.7309 85.5092 19.3694 94.3285 17.1566 105.078C16.6347 107.624 16.632 115.269 17.1539 115.983C17.5214 116.486 18.1765 116.502 42.9621 116.632C68.3895 116.766 68.3895 116.766 69.1884 117.357C71.6648 119.186 71.1269 123.324 68.2564 124.525C67.5428 124.823 62.8295 124.887 41.9476 124.887C16.9675 124.887 16.4829 124.877 14.9784 124.341C12.1531 123.332 9.72196 120.805 8.94707 118.073Z" fill="white" fill-opacity="0.988235"/>
</g>
<defs>
<clipPath id="clip0_1070_14024">
<rect width="139" height="139" fill="white"/>
</clipPath>
</defs>
</svg>
