<svg width="66" height="65" viewBox="0 0 66 65" fill="none" xmlns="http://www.w3.org/2000/svg">
<path d="M36.1469 15.5426C35.3521 14.1652 34.1824 13.3755 32.9367 13.3755C31.6911 13.3755 30.5234 14.1637 29.7286 15.5406L12.2013 45.9045C11.4065 47.2818 11.3072 48.6906 11.9297 49.7686C12.5523 50.8466 13.8213 51.4646 15.4104 51.4646H50.4651C52.0547 51.4646 53.3237 50.8466 53.9458 49.7686C54.5678 48.6906 54.4701 47.2828 53.6753 45.9065L36.1469 15.5426ZM52.0958 48.6987C51.8648 49.0964 51.2716 49.3253 50.4666 49.3253H15.4104C14.6055 49.3253 14.0123 49.0964 13.7823 48.6987C13.5523 48.301 13.6506 47.6709 14.0538 46.9733L31.5812 16.6094C31.9834 15.9129 32.4773 15.5137 32.9367 15.5137C33.3962 15.5137 33.8921 15.9139 34.2944 16.6115L51.8217 46.9748C52.226 47.6724 52.3253 48.3 52.0958 48.6987Z" fill="white"/>
<path d="M32.9378 39.5853C33.0782 39.5854 33.2173 39.5578 33.3471 39.504C33.4769 39.4503 33.5948 39.3716 33.6941 39.2722C33.7934 39.1729 33.8722 39.055 33.9259 38.9252C33.9796 38.7955 34.0072 38.6564 34.0072 38.5159V24.4368C34.0072 24.1532 33.8945 23.8812 33.6939 23.6806C33.4934 23.4801 33.2214 23.3674 32.9378 23.3674C32.6542 23.3674 32.3822 23.4801 32.1816 23.6806C31.9811 23.8812 31.8684 24.1532 31.8684 24.4368V38.5159C31.8683 38.6564 31.896 38.7955 31.9497 38.9252C32.0034 39.055 32.0822 39.1729 32.1815 39.2722C32.2808 39.3716 32.3987 39.4503 32.5285 39.504C32.6582 39.5578 32.7973 39.5854 32.9378 39.5853Z" fill="white"/>
<path d="M32.9382 45.7128C33.9829 45.7128 34.8298 44.8659 34.8298 43.8212C34.8298 42.7766 33.9829 41.9297 32.9382 41.9297C31.8936 41.9297 31.0467 42.7766 31.0467 43.8212C31.0467 44.8659 31.8936 45.7128 32.9382 45.7128Z" fill="white"/>
</svg>
