<svg width="24" height="24" viewBox="0 0 24 24" fill="none" xmlns="http://www.w3.org/2000/svg">
<path d="M13.6454 17.2108L11.775 15.5076C10.8579 14.6722 10.3992 14.2545 9.87948 14.0963C9.42168 13.957 8.93283 13.957 8.47509 14.0963C7.95532 14.2545 7.49671 14.6722 6.57945 15.5076L3.12384 18.6366M13.6454 17.2108L14.0263 16.864C14.9435 16.0286 15.4022 15.6109 15.9218 15.4527C16.3796 15.3134 16.8685 15.3134 17.3262 15.4527C17.846 15.6109 18.3046 16.0286 19.2219 16.864L20.6101 18.0724M13.6454 17.2108L17.7444 20.9217M17.6879 8.319C17.6879 9.65079 16.6083 10.7304 15.2766 10.7304C13.9448 10.7304 12.8652 9.65079 12.8652 8.319C12.8652 6.98725 13.9448 5.90766 15.2766 5.90766C16.6083 5.90766 17.6879 6.98725 17.6879 8.319ZM22.5106 11.936C22.5106 17.9289 17.6525 22.7871 11.6595 22.7871C5.66666 22.7871 0.808472 17.9289 0.808472 11.936C0.808472 5.94315 5.66666 1.08496 11.6595 1.08496C17.6525 1.08496 22.5106 5.94315 22.5106 11.936Z" stroke="white" stroke-linecap="round" stroke-linejoin="round"/>
</svg>
