<svg width="61" height="54" viewBox="0 0 61 54" fill="none" xmlns="http://www.w3.org/2000/svg">
<path d="M47.1562 3H18.9688C14.018 3.00545 10.0059 6.68478 10 11.225V41.775C10 46.3175 14.0155 50 18.9688 50H47.1562H49.7188C49.7181 50 49.7192 50 49.7188 50C50.4258 49.9996 51.0005 49.4736 51 48.825V46.475V34.725V6.525C50.9977 4.57905 49.2782 3.00215 47.1562 3ZM48.4375 46.475C48.4361 47.1235 47.8633 47.6487 47.1562 47.65H18.9688C15.432 47.647 12.5658 45.0184 12.5625 41.775C12.5625 38.5303 15.4306 35.9 18.9688 35.9H48.4375V46.475ZM48.4375 33.55H18.9688C16.4557 33.55 14.1908 34.5035 12.5625 36.0307V11.225C12.5658 7.98156 15.432 5.35301 18.9688 5.35H47.1562C47.8633 5.35129 48.4361 5.87654 48.4375 6.525V33.55ZM36.9062 14.75H24.0938C23.3862 14.75 22.8125 15.2761 22.8125 15.925C22.8125 16.5739 23.3862 17.1 24.0938 17.1H36.9062C37.6138 17.1 38.1875 16.5739 38.1875 15.925C38.1875 15.2761 37.6138 14.75 36.9062 14.75Z" fill="white"/>
</svg>
