<svg width="59" height="58" viewBox="0 0 59 58" fill="none" xmlns="http://www.w3.org/2000/svg">
<path d="M42.5805 20.5115V37.4594C42.5805 41.892 40.4946 45.89 37.1919 48.4104C34.8453 50.2356 31.9772 51.2785 28.7614 51.2785H23.0252C19.8963 51.2785 16.9413 50.2356 14.5946 48.4104C11.3789 45.89 9.20605 41.9789 9.20605 37.4594V20.5115H42.5805Z" stroke="white" stroke-width="1.5395" stroke-miterlimit="10" stroke-linecap="round" stroke-linejoin="round"/>
<path d="M37.192 48.4101H41.0162C43.0151 48.4101 44.6665 50.0614 44.6665 52.0604C44.6665 53.1034 44.2319 53.9725 43.6235 54.6678C43.0151 55.3631 42.0591 55.7108 41.0162 55.7108H10.7706C8.77158 55.7108 7.12024 54.0594 7.12024 52.0604C7.12024 51.1044 7.5548 50.1484 8.16319 49.4531C8.85849 48.7578 9.72762 48.4101 10.7706 48.4101H14.5947M42.5806 23.3793C47.7084 23.3793 51.7933 27.5511 51.7933 32.592C51.7933 37.6329 47.6215 41.8047 42.5806 41.8047M17.9843 1.73804C22.243 6.51823 16.5937 13.6451 17.8974 15.6441M25.1981 1.73804C29.4568 6.51823 23.8944 13.6451 25.1111 15.6441M32.4118 1.73804C36.6705 6.51823 31.0212 13.6451 32.3249 15.6441" stroke="white" stroke-width="1.5395" stroke-miterlimit="10" stroke-linecap="round" stroke-linejoin="round"/>
<path d="M25.894 46.3244C31.6541 46.3244 36.3235 41.6549 36.3235 35.8948C36.3235 30.1348 31.6541 25.4653 25.894 25.4653C20.1339 25.4653 15.4645 30.1348 15.4645 35.8948C15.4645 41.6549 20.1339 46.3244 25.894 46.3244Z" stroke="white" stroke-width="1.5395" stroke-miterlimit="10" stroke-linecap="round" stroke-linejoin="round"/>
<path d="M25.894 25.4653V28.0727M25.894 43.717V46.3244M36.3235 35.8948H33.7161M18.0719 35.8948H15.4645M31.1087 26.8559L30.0658 28.6811M21.7222 43.1086L20.6792 44.9338M34.9329 41.1096L33.1077 40.0666M18.6802 31.723L16.8551 30.6801M34.9329 30.6801L33.1077 31.723M18.6802 40.0666L16.8551 41.1096M31.1087 44.9338L30.0658 43.1086M21.7222 28.6811L20.6792 26.8559M25.894 30.767V35.8948H29.7181" stroke="white" stroke-width="1.5395" stroke-miterlimit="10" stroke-linecap="round" stroke-linejoin="round"/>
</svg>
