<svg width="47" height="61" viewBox="0 0 47 61" fill="none" xmlns="http://www.w3.org/2000/svg">
<path d="M37.742 7.3728H39.5797C40.0671 7.3728 40.5345 7.56744 40.8791 7.91389C41.2237 8.26034 41.4174 8.73023 41.4174 9.22019V49.8626C41.4174 50.3526 41.2237 50.8225 40.8791 51.1689C40.5345 51.5154 40.0671 51.71 39.5797 51.71H8.33937C7.852 51.71 7.38458 51.5154 7.03995 51.1689C6.69532 50.8225 6.50171 50.3526 6.50171 49.8626V47.1839" fill="#09ABD1"/>
<path d="M7.42054 3.67798H35.9044C36.3917 3.67798 36.8592 3.87261 37.2038 4.21906C37.5484 4.56552 37.742 5.03541 37.742 5.52536V46.1678C37.742 46.6578 37.5484 47.1277 37.2038 47.4741C36.8592 47.8206 36.3917 48.0152 35.9044 48.0152H6.50171V4.60167C6.50171 4.35669 6.59851 4.12175 6.77083 3.94852C6.94314 3.7753 7.17685 3.67798 7.42054 3.67798Z" fill="#3EC8F7"/>
<path d="M7.42054 3.67798H12.9335V48.0152H7.42054C7.17685 48.0152 6.94314 47.9179 6.77083 47.7446C6.59851 47.5714 6.50171 47.3365 6.50171 47.0915V4.60167C6.50171 4.35669 6.59851 4.12175 6.77083 3.94852C6.94314 3.7753 7.17685 3.67798 7.42054 3.67798Z" fill="#05B8E8"/>
<path d="M33.1478 7.3728H17.5276C17.0201 7.3728 16.6088 7.78635 16.6088 8.29649V11.9913C16.6088 12.5014 17.0201 12.915 17.5276 12.915H33.1478C33.6552 12.915 34.0666 12.5014 34.0666 11.9913V8.29649C34.0666 7.78635 33.6552 7.3728 33.1478 7.3728Z" fill="#05B8E8"/>
<path d="M24.8783 36.9309H30.3913" stroke="#F2F2F2" stroke-width="2" stroke-miterlimit="10" stroke-linecap="round"/>
<path d="M24.8783 40.6257H34.0666" stroke="#F2F2F2" stroke-width="2" stroke-miterlimit="10" stroke-linecap="round"/>
<path d="M33.1478 36.9309H34.0667" stroke="#F2F2F2" stroke-width="2" stroke-miterlimit="10" stroke-linecap="round"/>
<path d="M28.5536 44.3206H34.0666" stroke="#F2F2F2" stroke-width="2" stroke-miterlimit="10" stroke-linecap="round"/>
<path d="M24.8783 44.3206H25.7971" stroke="#F2F2F2" stroke-width="2" stroke-miterlimit="10" stroke-linecap="round"/>
<path d="M15.5338 57.0953L12.9335 53.5575L10.3332 57.0953C10.3204 57.1079 10.3041 57.1165 10.2865 57.12C10.2688 57.1234 10.2505 57.1216 10.2339 57.1147C10.2173 57.1078 10.203 57.0962 10.1929 57.0813C10.1828 57.0663 10.1773 57.0487 10.177 57.0306V48.0154H15.69V57.0306C15.6897 57.0487 15.6842 57.0663 15.6741 57.0813C15.664 57.0962 15.6497 57.1078 15.6331 57.1147C15.6165 57.1216 15.5982 57.1234 15.5805 57.12C15.5629 57.1165 15.5466 57.1079 15.5338 57.0953Z" fill="#C1272D"/>
</svg>
