<svg width="82" height="82" viewBox="0 0 82 82" fill="none" xmlns="http://www.w3.org/2000/svg">
<g clip-path="url(#clip0_1168_35630)">
<path fill-rule="evenodd" clip-rule="evenodd" d="M15.0333 17.2541H24.2583C25.6064 17.2422 26.9059 17.7571 27.88 18.6891C29.9983 20.6024 31.4333 21.6274 32.3217 21.6274C33.1417 21.6274 28.6317 25.4541 18.7233 33.1074C17.8939 33.7456 16.9024 34.1387 15.861 34.2422C14.8196 34.3458 13.7701 34.1556 12.8312 33.6933C11.8924 33.231 11.1018 32.515 10.549 31.6265C9.99614 30.7379 9.7032 29.7123 9.70333 28.6658V22.6524C9.6972 21.9476 9.83039 21.2484 10.0952 20.5951C10.3601 19.9419 10.7514 19.3474 11.2466 18.8458C11.7419 18.3442 12.3314 17.9453 12.9812 17.6722C13.631 17.399 14.3284 17.257 15.0333 17.2541Z" fill="#3D96E1"/>
<path fill-rule="evenodd" clip-rule="evenodd" d="M26.8549 21.5591H66.9666C68.3796 21.5609 69.7343 22.123 70.7335 23.1222C71.7326 24.1214 72.2948 25.476 72.2966 26.8891V38.9158C72.2948 40.3288 71.7326 41.6835 70.7335 42.6826C69.7343 43.6818 68.3796 44.2439 66.9666 44.2457H26.8549C25.4419 44.2439 24.0872 43.6818 23.088 42.6826C22.0888 41.6835 21.5267 40.3288 21.5249 38.9158V26.8891C21.5383 25.4796 22.1041 24.1317 23.1008 23.135C24.0975 22.1383 25.4454 21.5725 26.8549 21.5591Z" fill="#3D96E1"/>
<path fill-rule="evenodd" clip-rule="evenodd" d="M14.2815 24.8392H67.7182C67.8887 24.8391 68.0576 24.8726 68.2152 24.9378C68.3728 25.003 68.5159 25.0986 68.6365 25.2192C68.7571 25.3398 68.8527 25.4829 68.918 25.6405C68.9832 25.7981 69.0167 25.967 69.0165 26.1375V46.1592C69.0167 46.3297 68.9832 46.4986 68.918 46.6562C68.8527 46.8137 68.7571 46.9569 68.6365 47.0775C68.5159 47.1981 68.3728 47.2937 68.2152 47.3589C68.0576 47.4241 67.8887 47.4576 67.7182 47.4575H14.2815C14.111 47.4576 13.9421 47.4241 13.7846 47.3589C13.627 47.2937 13.4838 47.1981 13.3632 47.0775C13.2426 46.9569 13.147 46.8137 13.0818 46.6562C13.0166 46.4986 12.9831 46.3297 12.9832 46.1592V26.1375C12.9716 25.964 12.9971 25.79 13.0583 25.6272C13.1194 25.4644 13.2146 25.3165 13.3376 25.1936C13.4606 25.0706 13.6084 24.9753 13.7712 24.9142C13.934 24.8531 14.108 24.8275 14.2815 24.8392Z" fill="white"/>
<path fill-rule="evenodd" clip-rule="evenodd" d="M12.3684 26.9575H69.6317C70.3382 26.9584 71.0156 27.2394 71.5152 27.739C72.0148 28.2386 72.2958 28.916 72.2967 29.6225V59.4159C72.2949 60.8289 71.7328 62.1836 70.7336 63.1827C69.7344 64.1819 68.3798 64.744 66.9667 64.7459H15.0334C13.6203 64.744 12.2657 64.1819 11.2665 63.1827C10.2673 62.1836 9.70518 60.8289 9.70337 59.4159V29.6225C9.70423 28.916 9.98528 28.2386 10.4849 27.739C10.9845 27.2394 11.6618 26.9584 12.3684 26.9575Z" fill="url(#paint0_linear_1168_35630)"/>
</g>
<defs>
<linearGradient id="paint0_linear_1168_35630" x1="40.9947" y1="64.7521" x2="40.9947" y2="26.9655" gradientUnits="userSpaceOnUse">
<stop stop-color="#6DB8F6"/>
<stop offset="1" stop-color="#3D96E1"/>
</linearGradient>
<clipPath id="clip0_1168_35630">
<rect width="82" height="82" fill="white"/>
</clipPath>
</defs>
</svg>
