<svg width="39" height="39" viewBox="0 0 39 39" fill="none" xmlns="http://www.w3.org/2000/svg">
<path fill-rule="evenodd" clip-rule="evenodd" d="M8.51303 14.5938C8.51303 11.6909 9.6662 8.90691 11.7188 6.85426C13.7715 4.8016 16.5555 3.64844 19.4584 3.64844C22.3613 3.64844 25.1453 4.8016 27.1979 6.85426C29.2506 8.90691 30.4037 11.6909 30.4037 14.5938V15.8099C30.4037 19.2524 31.7009 22.3885 33.8381 24.7608C33.9713 24.9083 34.0662 25.0863 34.1147 25.279C34.1631 25.4717 34.1636 25.6734 34.1161 25.8663C34.0686 26.0593 33.9745 26.2377 33.8421 26.3859C33.7097 26.534 33.543 26.6475 33.3565 26.7164C30.8529 27.6406 28.2325 28.3217 25.5229 28.7319C25.5839 29.5656 25.4724 30.4029 25.1952 31.1916C24.9181 31.9803 24.4814 32.7033 23.9123 33.3156C23.3431 33.9279 22.6539 34.4162 21.8876 34.7502C21.1213 35.0841 20.2943 35.2565 19.4584 35.2565C18.6224 35.2565 17.7955 35.0841 17.0292 34.7502C16.2629 34.4162 15.5736 33.9279 15.0045 33.3156C14.4354 32.7033 13.9986 31.9803 13.7215 31.1916C13.4444 30.4029 13.3328 29.5656 13.3938 28.7319C10.721 28.3269 8.09628 27.651 5.56022 26.7147C5.37396 26.646 5.20737 26.5327 5.07499 26.3847C4.94262 26.2367 4.84849 26.0586 4.80082 25.8658C4.75316 25.6731 4.75341 25.4716 4.80155 25.279C4.84969 25.0864 4.94426 24.9084 5.077 24.7608C7.29332 22.3069 8.51802 19.1165 8.51303 15.8099V14.5938ZM15.8132 29.0254C15.7924 29.5171 15.8713 30.0078 16.0452 30.4681C16.219 30.9285 16.4842 31.3489 16.8247 31.7041C17.1653 32.0593 17.5741 32.342 18.0267 32.535C18.4793 32.7281 18.9663 32.8277 19.4584 32.8277C19.9504 32.8277 20.4374 32.7281 20.89 32.535C21.3426 32.342 21.7515 32.0593 22.092 31.7041C22.4326 31.3489 22.6977 30.9285 22.8716 30.4681C23.0454 30.0078 23.1243 29.5171 23.1036 29.0254C20.6784 29.2439 18.2384 29.2439 15.8132 29.0254Z" fill="white"/>
</svg>
