<svg width="55" height="55" viewBox="0 0 55 55" fill="none" xmlns="http://www.w3.org/2000/svg">
<path d="M47.2164 13.3606H35.9301V8.58705C35.9293 7.91474 35.6619 7.27018 35.1865 6.79479C34.7111 6.3194 34.0666 6.052 33.3943 6.05127H22.1566C21.4843 6.052 20.8397 6.3194 20.3643 6.79479C19.889 7.27018 19.6216 7.91474 19.6208 8.58705V13.3606H8.33446C7.21397 13.3619 6.13976 13.8076 5.34746 14.5999C4.55516 15.3922 4.10947 16.4664 4.10815 17.5869V43.8189C4.10947 44.9394 4.55516 46.0136 5.34746 46.8059C6.13976 47.5982 7.21397 48.0439 8.33446 48.0452H47.2164C48.3369 48.0439 49.4111 47.5982 50.2034 46.8059C50.9957 46.0136 51.4414 44.9394 51.4427 43.8189V17.5869C51.4414 16.4664 50.9957 15.3922 50.2034 14.5999C49.4111 13.8076 48.3369 13.3619 47.2164 13.3606ZM21.3113 8.58705C21.3115 8.36292 21.4006 8.14801 21.5591 7.98953C21.7176 7.83104 21.9325 7.74194 22.1566 7.74179H33.3943C33.6184 7.74194 33.8333 7.83104 33.9918 7.98953C34.1503 8.14801 34.2394 8.36292 34.2395 8.58705V13.3606H21.3113V8.58705ZM8.33446 15.0511C14.8963 15.0489 47.2164 15.0511 47.2164 15.0511C47.8887 15.0519 48.5333 15.3193 49.0087 15.7947C49.4841 16.2701 49.7515 16.9146 49.7522 17.5869V21.9789L32.0917 28.2693V27.21C32.0911 26.7618 31.9128 26.3322 31.5959 26.0153C31.279 25.6984 30.8494 25.5201 30.4012 25.5195H25.1497C24.7015 25.5201 24.2719 25.6984 23.9549 26.0153C23.638 26.3322 23.4597 26.7618 23.4592 27.21V28.2693L5.79867 21.9789V17.587C5.7994 16.9147 6.06679 16.2701 6.54218 15.7947C7.01758 15.3193 7.66214 15.0519 8.33446 15.0511ZM25.1497 27.21L30.4012 27.21C30.4013 28.6284 30.4011 32.5424 30.4012 34.0134C30.4007 34.5273 30.1964 35.0201 29.8331 35.3836C29.4697 35.7472 28.977 35.9517 28.463 35.9523H27.0878C26.5738 35.9517 26.0811 35.7471 25.7177 35.3836C25.3544 35.0201 25.15 34.5273 25.1496 34.0133C25.1496 34.0133 25.1509 27.2341 25.1497 27.21ZM47.2164 46.3547H8.33446C7.66215 46.3539 7.01759 46.0865 6.5422 45.6111C6.06681 45.1357 5.79941 44.4912 5.79867 43.8189V23.7744L23.4592 30.0648V34.0134C23.4601 34.9756 23.8426 35.8982 24.5229 36.5786C25.2032 37.2591 26.1257 37.6419 27.0879 37.643H28.4631C29.4253 37.6419 30.3477 37.2591 31.028 36.5786C31.7083 35.8982 32.0909 34.9756 32.0918 34.0134V30.0648L49.7522 23.7743V43.8189C49.7515 44.4912 49.4841 45.1357 49.0087 45.6111C48.5333 46.0865 47.8887 46.3539 47.2164 46.3547Z" fill="white"/>
</svg>
