<svg width="52" height="29" viewBox="0 0 52 29" fill="none" xmlns="http://www.w3.org/2000/svg">
<rect x="0.481676" y="0.481676" width="50.2672" height="27.498" rx="13.749" stroke="#008EC3" stroke-width="0.963353"/>
<path d="M24.0003 14.2309C24.0003 20.1254 19.2219 24.9039 13.3273 24.9039C7.43277 24.9039 2.6543 20.1254 2.6543 14.2309C2.6543 8.33634 7.43277 3.55786 13.3273 3.55786C19.2219 3.55786 24.0003 8.33634 24.0003 14.2309Z" fill="#008EC3"/>
<g opacity="0.7">
<path d="M9.35241 20.1301C8.64241 20.1301 8.03716 19.8799 7.53666 19.3794C7.03566 18.8784 6.78516 18.2729 6.78516 17.5629C6.78516 16.8919 7.02116 16.3204 7.49316 15.8484C7.96516 15.3764 8.53691 15.1404 9.20841 15.1404C9.68341 15.1404 10.1209 15.2691 10.5209 15.5266C10.9219 15.7841 11.2204 16.1316 11.4164 16.5691L11.7044 17.2606H12.4724C12.8724 17.2606 13.2072 17.3984 13.4767 17.6739C13.7467 17.9499 13.8817 18.2879 13.8817 18.6879C13.8817 19.0879 13.7412 19.4284 13.4602 19.7094C13.1792 19.9899 12.8387 20.1301 12.4387 20.1301H9.35241ZM15.3194 18.0879C15.2019 17.4449 14.9007 16.9079 14.4157 16.4769C13.9307 16.0464 13.3617 15.8151 12.7087 15.7831C12.4367 15.2141 12.0492 14.7471 11.5462 14.3821C11.0442 14.0171 10.4764 13.7891 9.84291 13.6981C10.0909 12.9201 10.5437 12.2926 11.2012 11.8156C11.8592 11.3396 12.5987 11.1016 13.4197 11.1016C14.4582 11.1016 15.3427 11.4671 16.0732 12.1981C16.8042 12.9286 17.1697 13.8131 17.1697 14.8516C17.1697 15.5201 17.0034 16.1411 16.6709 16.7146C16.3379 17.2881 15.8874 17.7459 15.3194 18.0879ZM13.0447 9.91888V7.38013H13.7947V9.91888H13.0447ZM17.1667 11.6356L16.6357 11.0904L18.4334 9.28438L18.9682 9.83413L17.1667 11.6356ZM18.3517 15.2266V14.4766H20.8912V15.2266H18.3517ZM18.4334 20.4046L16.6357 18.5986L17.1809 18.0534L18.9869 19.8504L18.4334 20.4046ZM9.68691 11.6491L7.85691 9.81913L8.42091 9.31213L10.2172 11.1189L9.68616 11.6499L9.68691 11.6491Z" fill="white"/>
</g>
</svg>
