<svg width="14" height="14" viewBox="0 0 14 14" fill="none" xmlns="http://www.w3.org/2000/svg">
<path d="M3.05078 2.99707H10.0924C10.5234 2.99707 10.9367 3.16828 11.2415 3.47302C11.5462 3.77777 11.7174 4.19109 11.7174 4.62207V10.5804C11.7174 11.0114 11.5462 11.4247 11.2415 11.7295C10.9367 12.0342 10.5234 12.2054 10.0924 12.2054H3.05078C2.6198 12.2054 2.20648 12.0342 1.90173 11.7295C1.59699 11.4247 1.42578 11.0114 1.42578 10.5804V4.62207C1.42578 4.19109 1.59699 3.77777 1.90173 3.47302C2.20648 3.16828 2.6198 2.99707 3.05078 2.99707ZM3.05078 3.53874C2.76346 3.53874 2.48791 3.65287 2.28475 3.85604C2.08158 4.0592 1.96745 4.33475 1.96745 4.62207V10.5804C1.96745 10.8677 2.08158 11.1433 2.28475 11.3464C2.48791 11.5496 2.76346 11.6637 3.05078 11.6637H10.0924C10.3798 11.6637 10.6553 11.5496 10.8585 11.3464C11.0616 11.1433 11.1758 10.8677 11.1758 10.5804V4.62207C11.1758 4.33475 11.0616 4.0592 10.8585 3.85604C10.6553 3.65287 10.3798 3.53874 10.0924 3.53874H3.05078ZM5.75911 5.16374H9.55078V8.9554H9.00911V6.08999L5.1362 9.95749L4.75703 9.57832L8.62453 5.7054H5.75911V5.16374Z" fill="white"/>
</svg>
