<svg width="42" height="43" viewBox="0 0 42 43" fill="none" xmlns="http://www.w3.org/2000/svg">
<g clip-path="url(#clip0_1471_21820)">
<path d="M1.75 21.5625C1.75 7.5625 7 2.3125 21 2.3125C35 2.3125 40.25 7.5625 40.25 21.5625C40.25 35.5625 35 40.8125 21 40.8125C7 40.8125 1.75 35.5625 1.75 21.5625Z" fill="white"/>
<path d="M21 25.9731C21.5852 25.98 22.166 25.8713 22.7091 25.6532C23.2521 25.4352 23.7468 25.112 24.1647 24.7022C24.5826 24.2925 24.9154 23.8043 25.1441 23.2656C25.3728 22.7269 25.4929 22.1483 25.4975 21.5631V11.2731C25.426 10.1265 24.9201 9.0503 24.0829 8.26364C23.2457 7.47699 22.1401 7.03906 20.9912 7.03906C19.8424 7.03906 18.7368 7.47699 17.8996 8.26364C17.0623 9.0503 16.5565 10.1265 16.485 11.2731V21.5631C16.4918 22.1491 16.6141 22.7281 16.8447 23.2669C17.0753 23.8057 17.4098 24.2938 17.8291 24.7033C18.2483 25.1128 18.7441 25.4357 19.2882 25.6536C19.8323 25.8715 20.414 25.98 21 25.9731Z" fill="#3D96E1"/>
<path d="M19.5125 31.7305H22.505V36.263H19.5125V31.7305Z" fill="#3D96E1"/>
<path d="M13.51 21.5625H10.5C10.5013 22.9201 10.7746 24.2637 11.3036 25.5141C11.8325 26.7644 12.6066 27.8961 13.58 28.8425L15.75 26.8125C15.0422 26.1334 14.4789 25.3184 14.094 24.4162C13.7091 23.514 13.5104 22.5434 13.51 21.5625Z" fill="#05B8E8"/>
<path d="M21 28.9125C19.0446 28.9161 17.1634 28.1637 15.75 26.8125L13.58 28.825C15.5558 30.7755 18.2236 31.864 21 31.8525C22.3657 31.8687 23.7212 31.6151 24.9887 31.1063C26.2562 30.5975 27.4108 29.8435 28.3863 28.8875C29.3618 27.9315 30.139 26.7923 30.6733 25.5354C31.2076 24.2784 31.4885 22.9283 31.5 21.5625H28.49C28.4808 22.5369 28.2798 23.5 27.8984 24.3967C27.5171 25.2935 26.9628 26.1063 26.2673 26.7888C25.5718 27.4713 24.7486 28.0102 23.8448 28.3746C22.9411 28.7389 21.9744 28.9217 21 28.9125Z" fill="#1C5AC2"/>
</g>
<defs>
<clipPath id="clip0_1471_21820">
<rect width="42" height="42" fill="white" transform="translate(0 0.5625)"/>
</clipPath>
</defs>
</svg>
