<svg width="32" height="32" viewBox="0 0 32 32" fill="none" xmlns="http://www.w3.org/2000/svg">
<path d="M15.9977 1.14234C15.9977 0.839307 15.8774 0.548687 15.6631 0.334411C15.4489 0.120135 15.1583 -0.000244141 14.8553 -0.000244141H7.31572C4.75682 -0.000244141 3.47737 -0.000244021 2.49493 0.497922C1.63517 0.936089 0.936156 1.63523 0.498072 2.49516C-1.49012e-07 3.47321 0 4.7529 0 7.31686V14.8579C0 15.1609 0.120356 15.4516 0.334592 15.6658C0.548827 15.8801 0.839393 16.0005 1.14237 16.0005C1.44534 16.0005 1.73591 15.8801 1.95014 15.6658C2.16438 15.4516 2.28474 15.1609 2.28474 14.8579V7.31686C2.28474 5.99832 2.28474 5.14824 2.33957 4.5061C2.38983 3.88454 2.47665 3.65602 2.53377 3.54176C2.75311 3.11215 3.10267 2.76252 3.5322 2.54315C3.64644 2.48602 3.87491 2.39918 4.49636 2.34891C5.14294 2.29635 5.99514 2.29406 7.30658 2.29406H14.8462C15.1492 2.29406 15.4397 2.17368 15.654 1.95941C15.8682 1.74513 15.9886 1.45451 15.9886 1.15148L15.9977 1.14234ZM31.9909 24.6796V17.1385C31.9909 16.8355 31.8705 16.5449 31.6563 16.3306C31.442 16.1163 31.1515 15.9959 30.8485 15.9959C30.5455 15.9959 30.255 16.1163 30.0407 16.3306C29.8265 16.5449 29.7061 16.8355 29.7061 17.1385V24.6796C29.7061 25.9981 29.7061 26.8482 29.6513 27.4903C29.601 28.1119 29.5142 28.3404 29.4571 28.4546C29.238 28.8846 28.8885 29.2342 28.4587 29.4533C28.3444 29.5104 28.116 29.5972 27.4945 29.6475C26.8479 29.7001 25.9957 29.7024 24.6843 29.7024H17.1447C16.8417 29.7024 16.5511 29.8227 16.3369 30.037C16.1226 30.2513 16.0023 30.5419 16.0023 30.8449C16.0023 31.148 16.1226 31.4386 16.3369 31.6529C16.5511 31.8671 16.8417 31.9875 17.1447 31.9875H24.6843C27.2432 31.9875 28.5226 31.9875 29.5051 31.4893C30.3641 31.0506 31.0633 30.3513 31.5019 29.4921C32 28.5141 32 27.2344 32 24.6704L31.9909 24.6796ZM13.3703 18.6239C13.583 18.8359 13.7036 19.1233 13.7061 19.4237V26.286C13.7061 26.5891 13.5858 26.8797 13.3715 27.094C13.1573 27.3082 12.8667 27.4286 12.5638 27.4286C12.2608 27.4286 11.9702 27.3082 11.756 27.094C11.5417 26.8797 11.4214 26.5891 11.4214 26.286V22.1956L1.93974 31.679C1.72429 31.8871 1.43572 32.0023 1.1362 31.9997C0.836672 31.9971 0.550152 31.8769 0.338348 31.6651C0.126544 31.4533 0.00640224 31.1667 0.00379945 30.8671C0.00119665 30.5675 0.116341 30.2789 0.324432 30.0634L9.80608 20.58H5.71641C5.41343 20.58 5.12287 20.4596 4.90863 20.2453C4.6944 20.031 4.57404 19.7404 4.57404 19.4374C4.57404 19.1343 4.6944 18.8437 4.90863 18.6295C5.12287 18.4152 5.41343 18.2948 5.71641 18.2948H12.5706C12.7204 18.2949 12.8686 18.3244 13.007 18.3816C13.1441 18.4365 13.2675 18.5203 13.3771 18.633L13.3703 18.6239ZM22.1665 11.4256L31.6482 1.94215C31.8562 1.72665 31.9714 1.43803 31.9688 1.13845C31.9662 0.838871 31.846 0.552297 31.6342 0.340453C31.4224 0.128609 31.1359 0.00844458 30.8364 0.0058413C30.5369 0.00323801 30.2483 0.118404 30.0328 0.326535L20.5512 9.80998V5.71953C20.5512 5.4165 20.4308 5.12588 20.2166 4.9116C20.0024 4.69732 19.7118 4.57694 19.4088 4.57694C19.1059 4.57694 18.8153 4.69732 18.601 4.9116C18.3868 5.12588 18.2665 5.4165 18.2665 5.71953V12.5819C18.2674 12.8072 18.3349 13.0272 18.4605 13.2142C18.5861 13.4013 18.7642 13.547 18.9724 13.6331C19.1103 13.6893 19.2577 13.718 19.4065 13.7176H26.2607C26.5637 13.7176 26.8543 13.5972 27.0685 13.383C27.2828 13.1687 27.4031 12.8781 27.4031 12.575C27.4031 12.272 27.2828 11.9814 27.0685 11.7671C26.8543 11.5528 26.5637 11.4324 26.2607 11.4324H22.1711L22.1665 11.4256Z" fill="white"/>
</svg>
