<svg width="135" height="135" viewBox="0 0 135 135" fill="none" xmlns="http://www.w3.org/2000/svg">
<g clip-path="url(#clip0_1070_14001)">
<path d="M9.03887 105.285C13.8552 99.1438 17.1084 98.0425 35.6329 96.256C41.1394 95.7282 40.7791 92.8963 34.628 88.3793C29.6594 84.7404 26.2844 80.1169 24.1071 73.9861C22.7216 70.0833 22.7216 70.0833 20.0267 69.2713C12.3733 66.9722 8.86631 59.8111 11.749 52.381C12.8402 49.5643 12.8402 49.5643 11.678 45.0931C7.71932 29.8827 16.3674 14.2714 31.1768 9.88648C35.1253 8.71919 36.2063 8.62784 46.3212 8.62784C57.2126 8.62784 57.2126 8.62784 60.3795 6.78047C69.3118 1.56825 81.6699 5.85678 88.3082 16.4741C91.2366 21.1534 91.2366 21.1534 96.4945 23.3307C113.278 30.2786 122.002 48.0824 116.77 64.7087C113.979 73.575 113.466 72.0322 122.129 80.8681C129.493 88.3793 129.681 88.628 130.163 91.3991C131.249 97.6517 126.073 102.798 119.764 101.732C116.78 101.23 116.739 101.199 109.233 93.754C100.727 85.3139 101.428 85.6032 95.0735 87.8921C88.9629 90.0947 81.9236 90.45 75.6812 88.8767C70.0325 87.4455 69.2357 87.5166 66.0332 89.7344C59.9481 93.9417 61.8259 95.713 73.6409 96.9209C92.0639 98.8038 97.9511 104.955 97.9511 122.317V130.432H4.56763C4.56763 113.131 5.38981 109.934 9.03887 105.285ZM20.8082 126.372C20.8082 114.192 20.8082 114.192 22.8383 114.192C24.8684 114.192 24.8684 114.192 24.8684 120.282V126.372H77.6503C77.6503 114.192 77.6503 114.192 79.6804 114.192C81.7105 114.192 81.7105 114.192 81.7105 120.282V126.372H93.8909C93.8909 107.396 88.628 102.575 71.6007 101.042C61.5518 100.133 63.5667 99.1743 54.6191 109.117L51.1934 112.923C39.4189 99.4889 41.0379 100.007 28.6139 101.24C16.9714 102.397 12.2007 105.417 9.63774 113.258C8.90691 115.491 8.62778 117.724 8.62778 121.358V126.372H20.8082ZM58.7757 95.6064C58.5321 92.6577 43.9968 92.5765 43.7481 95.5252C43.611 97.1188 44.0475 97.9359 47.1738 101.966C49.143 104.503 50.9244 106.574 51.1325 106.574C52.5535 106.549 58.928 97.403 58.7757 95.6064ZM125.956 94.3528C126.854 91.7797 125.504 89.6938 118.333 82.548L111.791 76.0263L104.447 83.3701C114.161 93.1449 117.724 96.4235 118.632 96.9666C119.541 97.5096 120.718 97.9511 121.251 97.9511C122.875 97.9511 125.367 96.0429 125.956 94.3528ZM64.4396 85.8113C65.6932 84.8369 65.6932 84.8369 62.5466 82.5226C59.4 80.2032 59.4 80.2032 57.3445 81.7156C50.2189 86.9481 41.1547 81.9136 41.1191 72.7021C41.109 69.5301 41.109 69.5301 46.6003 69.5301H52.0968C48.3665 58.5677 48.8486 48.5391 52.0105 41.7333C53.9188 37.6224 52.6703 37.125 47.6255 39.9925C42.7127 42.7839 36.3738 44.7226 31.0601 45.0525L26.8071 45.3164C27.2842 74.8083 29.6035 80.5635 38.3532 85.9179C40.0077 86.9278 43.0173 88.222 45.0423 88.7955C47.7321 89.5517 49.7114 89.775 52.4013 89.6177C56.3092 89.3944 62.2522 87.5166 64.4396 85.8113ZM52.9027 55.554C52.9027 63.6645 56.1246 71.4428 61.8595 77.1778C67.5945 82.9127 75.3728 86.1346 83.4833 86.1346C91.5937 86.1346 99.372 82.9127 105.107 77.1778C110.842 71.4428 114.064 63.6645 114.064 55.554C114.064 47.4436 110.842 39.6653 105.107 33.9303C99.372 28.1954 91.5937 24.9735 83.4833 24.9735C75.3728 24.9735 67.5945 28.1954 61.8595 33.9303C56.1246 39.6653 52.9027 47.4436 52.9027 55.554ZM55.3855 75.0925C54.2943 73.6207 54.1827 73.5902 49.6861 73.5902C44.6565 73.5902 44.4688 73.7933 46.4938 77.0008C46.8795 77.6199 47.8844 78.4726 48.7218 78.904C49.5592 79.3303 50.5945 79.6805 51.0208 79.6805C54.4364 79.6805 56.8776 77.1124 55.3855 75.0925ZM22.5845 65.4699C22.7267 65.4699 22.8383 61.7904 22.8383 57.2938C22.8383 49.1177 22.8383 49.1177 21.4426 49.4628C15.6671 50.8839 13.1548 56.7914 16.2152 61.7701C16.7633 62.6634 18.1387 63.8611 19.2654 64.4346C20.3921 65.003 21.5441 65.4699 21.8233 65.4699H22.5845ZM21.5289 45.1692C22.7114 45.1692 22.8383 44.9763 22.8383 43.2152C22.8383 41.2613 22.8383 41.2613 28.3246 40.972C35.78 40.5761 41.2206 38.9267 46.9607 35.3081C51.3913 32.5117 51.3913 32.5117 53.2894 33.8769C55.1825 35.237 55.1825 35.2371 58.7199 31.588C62.2573 27.9389 62.2573 27.9389 60.2627 26.6194C56.5832 24.1833 53.9188 16.0224 55.756 12.8149C56.0503 12.2972 37.2315 12.8301 34.4453 13.4188C22.6048 15.931 13.571 27.9542 14.9159 39.4139C15.0936 40.9162 15.5757 43.1645 15.9919 44.4181C16.7481 46.6917 16.7481 46.6917 18.4838 45.9305C19.4379 45.5143 20.8082 45.1692 21.5289 45.1692ZM75.6203 16.2305C75.6203 14.7993 75.7319 14.7181 77.696 14.7181C79.7768 14.7181 79.7768 14.7181 79.5383 17.6363C79.4114 19.2401 79.2744 20.6104 79.2389 20.6814C79.2033 20.7525 80.6599 20.8083 82.4718 20.8083C86.3797 20.8083 86.3949 20.7474 83.5883 16.8902C77.7163 8.81562 65.14 6.10547 61.1103 12.0434C59.2173 14.8297 59.0244 17.2607 60.4607 20.1587C61.3336 21.9198 62.2522 22.8993 63.8204 23.7265C65.008 24.3558 66.287 24.8684 66.6676 24.8684C70.9156 24.8684 75.6203 20.3261 75.6203 16.2305Z" fill="white" fill-opacity="0.988235"/>
<path d="M56.7659 55.5632C56.7659 48.4758 59.5814 41.6786 64.593 36.6669C69.6046 31.6553 76.4018 28.8398 83.4893 28.8398C90.5768 28.8398 97.374 31.6553 102.386 36.6669C107.397 41.6786 110.213 48.4758 110.213 55.5632C110.213 62.6507 107.397 69.4479 102.386 74.4595C97.374 79.4712 90.5768 82.2867 83.4893 82.2867C76.4018 82.2867 69.6046 79.4712 64.593 74.4595C59.5814 69.4479 56.7659 62.6507 56.7659 55.5632ZM100.682 69.3246C104.9 64.2444 104.941 63.3917 100.87 65.6705C91.5319 70.8878 75.8445 70.9284 66.7447 65.7517C63.0347 63.6404 62.8774 63.7419 64.9176 66.919C66.8868 69.9844 70.7287 73.6487 73.4135 75.019C74.5148 75.5823 76.8291 76.3994 78.5597 76.841C80.2955 77.2876 82.4067 77.6479 83.2543 77.6479C89.8571 77.6479 96.3483 74.547 100.682 69.3246ZM73.2841 55.5511C73.2841 58.2583 74.3595 60.8546 76.2738 62.7688C78.1881 64.6831 80.7844 65.7585 83.4916 65.7585C86.1988 65.7585 88.7951 64.6831 90.7093 62.7688C92.6236 60.8546 93.699 58.2583 93.699 55.5511C93.699 52.8439 92.6236 50.2476 90.7093 48.3333C88.7951 46.419 86.1988 45.3436 83.4916 45.3436C80.7844 45.3436 78.1881 46.419 76.2738 48.3333C74.3595 50.2476 73.2841 52.8439 73.2841 55.5511ZM70.5308 60.6257C69.2569 57.3827 69.262 53.2363 70.546 49.9882C71.0992 48.5925 71.5509 47.3897 71.556 47.3135C71.5763 46.7248 65.8768 50.2622 63.8975 52.0639C60.8575 54.8299 60.8118 55.6774 63.5676 58.2658C64.7552 59.3773 66.9223 60.9962 68.3891 61.8641C69.8558 62.7269 71.1601 63.3714 71.287 63.2902C71.419 63.2141 71.0789 62.0113 70.5308 60.6257ZM106.072 55.3526C106.072 54.0534 102.378 50.6276 98.9823 48.7701C95.6378 46.9481 95.724 46.8923 96.9522 50.0085C98.2261 53.2515 98.221 57.3979 96.937 60.646C96.3838 62.0417 95.9321 63.2395 95.927 63.3105C95.922 63.3816 97.0842 62.8538 98.5002 62.1432C101.723 60.5293 106.072 56.6214 106.072 55.3526ZM100.738 44.8825C104.382 46.9583 104.509 46.9024 102.809 43.9994C95.0947 30.8395 76.621 29.4742 66.7752 41.335C65.2323 43.1976 63.8518 45.1616 63.7047 45.7047C63.4763 46.5573 63.8823 46.4457 66.7041 44.9028C76.1186 39.7413 91.6791 39.7312 100.738 44.8825Z" fill="white" fill-opacity="0.988235"/>
<path d="M77.0261 55.5532C77.0412 53.8473 77.7295 52.2163 78.9411 51.0154C80.1528 49.8144 81.7897 49.1406 83.4957 49.1406C85.2017 49.1406 86.8386 49.8144 88.0503 51.0154C89.2619 52.2163 89.9502 53.8473 89.9653 55.5532C89.9502 57.2591 89.2619 58.89 88.0503 60.091C86.8386 61.2919 85.2017 61.9657 83.4957 61.9657C81.7897 61.9657 80.1528 61.2919 78.9411 60.091C77.7295 58.89 77.0412 57.2591 77.0261 55.5532ZM84.2547 53.5414C83.3818 53.2673 81.712 54.4194 81.712 55.3025C81.712 55.5308 82.0572 56.084 82.4733 56.5307C82.8946 56.9823 83.6254 57.2361 84.0974 57.0991C85.9701 56.5611 86.0818 54.1199 84.2547 53.5414Z" fill="white" fill-opacity="0.988235"/>
<path d="M32.363 55.5532C32.3781 53.8473 33.0664 52.2163 34.2781 51.0154C35.4897 49.8144 37.1267 49.1406 38.8326 49.1406C40.5386 49.1406 42.1756 49.8144 43.3872 51.0154C44.5989 52.2163 45.2871 53.8473 45.3022 55.5532C45.2871 57.2591 44.5989 58.89 43.3872 60.091C42.1756 61.2919 40.5386 61.9657 38.8326 61.9657C37.1267 61.9657 35.4897 61.2919 34.2781 60.091C33.0664 58.89 32.3781 57.2591 32.363 55.5532ZM39.5916 53.5414C38.7187 53.2673 37.049 54.4194 37.049 55.3025C37.049 55.5308 37.3941 56.084 37.8102 56.5307C38.2264 56.9823 38.9623 57.2361 39.4343 57.0991C41.307 56.5611 41.4187 54.1199 39.5916 53.5414Z" fill="white" fill-opacity="0.988235"/>
</g>
<defs>
<clipPath id="clip0_1070_14001">
<rect width="135" height="135" fill="white"/>
</clipPath>
</defs>
</svg>
