<svg width="33" height="33" viewBox="0 0 33 33" fill="none" xmlns="http://www.w3.org/2000/svg">
<path fill-rule="evenodd" clip-rule="evenodd" d="M0.648438 16.2719C0.648438 7.5399 7.72643 0.461914 16.4584 0.461914C25.1903 0.461914 32.2683 7.5399 32.2683 16.2719C32.2683 25.0038 25.1903 32.0818 16.4584 32.0818C7.72643 32.0818 0.648438 25.0038 0.648438 16.2719ZM11.5938 10.1911C11.2712 10.1911 10.9619 10.3192 10.7338 10.5473C10.5058 10.7754 10.3776 11.0847 10.3776 11.4073V21.1365C10.3776 21.8078 10.9225 22.3526 11.5938 22.3526H12.8099C13.1325 22.3526 13.4418 22.2245 13.6699 21.9964C13.898 21.7683 14.0261 21.459 14.0261 21.1365V11.4073C14.0261 11.0847 13.898 10.7754 13.6699 10.5473C13.4418 10.3192 13.1325 10.1911 12.8099 10.1911H11.5938ZM20.1068 10.1911C19.7843 10.1911 19.475 10.3192 19.2469 10.5473C19.0188 10.7754 18.8907 11.0847 18.8907 11.4073V21.1365C18.8907 21.8078 19.4355 22.3526 20.1068 22.3526H21.323C21.6455 22.3526 21.9549 22.2245 22.1829 21.9964C22.411 21.7683 22.5391 21.459 22.5391 21.1365V11.4073C22.5391 11.0847 22.411 10.7754 22.1829 10.5473C21.9549 10.3192 21.6455 10.1911 21.323 10.1911H20.1068Z" fill="white"/>
</svg>
