<svg width="16" height="16" viewBox="0 0 16 16" fill="none" xmlns="http://www.w3.org/2000/svg">
<g clip-path="url(#clip0_1171_37758)">
<path d="M8 0.5C8 0.367392 8.05268 0.240215 8.14645 0.146447C8.24021 0.0526784 8.36739 0 8.5 0L12.5 0C12.6326 0 12.7598 0.0526784 12.8536 0.146447C12.9473 0.240215 13 0.367392 13 0.5C13 0.632608 12.9473 0.759785 12.8536 0.853553C12.7598 0.947322 12.6326 1 12.5 1H11V15H12.5C12.6326 15 12.7598 15.0527 12.8536 15.1464C12.9473 15.2402 13 15.3674 13 15.5C13 15.6326 12.9473 15.7598 12.8536 15.8536C12.7598 15.9473 12.6326 16 12.5 16H8.5C8.36739 16 8.24021 15.9473 8.14645 15.8536C8.05268 15.7598 8 15.6326 8 15.5C8 15.3674 8.05268 15.2402 8.14645 15.1464C8.24021 15.0527 8.36739 15 8.5 15H10V1H8.5C8.36739 1 8.24021 0.947322 8.14645 0.853553C8.05268 0.759785 8 0.632608 8 0.5Z" fill="white"/>
<path fill-rule="evenodd" clip-rule="evenodd" d="M5.45998 4.31013C5.42179 4.21911 5.35758 4.1414 5.27538 4.08674C5.19319 4.03209 5.09668 4.00293 4.99798 4.00293C4.89927 4.00293 4.80276 4.03209 4.72057 4.08674C4.63837 4.1414 4.57416 4.21911 4.53597 4.31013L2.03598 10.3101C1.98492 10.4325 1.98458 10.5702 2.03503 10.6928C2.08547 10.8155 2.18258 10.9131 2.30498 10.9641C2.42737 11.0152 2.56504 11.0155 2.68769 10.9651C2.81034 10.9146 2.90792 10.8175 2.95898 10.6951L3.66398 9.00513H6.33398L7.03898 10.6951C7.09003 10.8175 7.18761 10.9146 7.31026 10.9651C7.43291 11.0155 7.57058 11.0152 7.69298 10.9641C7.81537 10.9131 7.91248 10.8155 7.96292 10.6928C8.01337 10.5702 8.01303 10.4325 7.96198 10.3101L5.46197 4.31013H5.45998ZM4.99798 5.80013L5.91497 8.00013H4.08498L5.00197 5.80013H4.99798Z" fill="white"/>
<path d="M8.50005 3C8.63266 3 8.75984 2.94732 8.85361 2.85355C8.94737 2.75979 9.00005 2.63261 9.00005 2.5C9.00005 2.36739 8.94737 2.24021 8.85361 2.14645C8.75984 2.05268 8.63266 2 8.50005 2H4.80005C3.12005 2 2.28005 2 1.64005 2.327C1.07692 2.61564 0.61869 3.07387 0.330052 3.637C0.00305179 4.279 0.00305176 5.117 0.00305176 6.797V9.197C0.00305176 10.877 0.00305179 11.717 0.330052 12.357C0.61869 12.9201 1.07692 13.3784 1.64005 13.667C2.28205 13.994 3.12005 13.994 4.80005 13.994H8.50005C8.63266 13.994 8.75984 13.9413 8.85361 13.8476C8.94737 13.7538 9.00005 13.6266 9.00005 13.494C9.00005 13.3614 8.94737 13.2342 8.85361 13.1404C8.75984 13.0467 8.63266 12.994 8.50005 12.994H4.80005C3.94305 12.994 3.36005 12.994 2.91005 12.956C2.47205 12.921 2.24705 12.856 2.09105 12.776C1.71474 12.5843 1.4088 12.2783 1.21705 11.902C1.13705 11.746 1.07205 11.522 1.03705 11.083C1.00005 10.633 0.999052 10.053 0.999052 9.193V6.793C0.999052 5.936 1.00005 5.353 1.03705 4.903C1.07305 4.465 1.13805 4.24 1.21705 4.084C1.40905 3.708 1.71505 3.402 2.09105 3.21C2.24705 3.13 2.47205 3.065 2.91005 3.03C3.36005 2.994 3.94005 2.993 4.80005 2.993H8.50005V3ZM12.5001 13C12.3679 13.0026 12.2421 13.0568 12.1494 13.151C12.0567 13.2452 12.0045 13.3719 12.0041 13.504C12.0041 13.782 12.2301 14.007 12.5081 14C13.3711 13.98 13.9181 13.91 14.3681 13.682C14.932 13.3945 15.3905 12.9359 15.6781 12.372C16.0051 11.73 16.0051 10.892 16.0051 9.212V6.812C16.0051 5.132 16.0051 4.292 15.6781 3.652C15.3905 3.08806 14.932 2.62952 14.3681 2.342C13.9191 2.113 13.3731 2.044 12.5081 2.024C12.4422 2.02267 12.3767 2.03452 12.3155 2.05888C12.2542 2.08323 12.1985 2.11959 12.1515 2.1658C12.1046 2.21202 12.0673 2.26717 12.042 2.328C12.0167 2.38883 12.0038 2.45411 12.0041 2.52C12.0041 2.795 12.2261 3.017 12.5001 3.024C12.7221 3.02867 12.9194 3.03833 13.0921 3.053C13.5301 3.088 13.7551 3.153 13.9111 3.233C14.2871 3.425 14.5931 3.731 14.7851 4.107C14.8651 4.263 14.9301 4.487 14.9651 4.926C15.0021 5.376 15.0031 5.956 15.0031 6.816V9.216C15.0031 10.073 15.0021 10.656 14.9651 11.106C14.9291 11.544 14.8641 11.769 14.7851 11.925C14.5933 12.3013 14.2874 12.6073 13.9111 12.799C13.7551 12.879 13.5301 12.944 13.0921 12.979C12.9187 12.9923 12.7214 13.0017 12.5001 13.007V13Z" fill="white"/>
</g>
<defs>
<clipPath id="clip0_1171_37758">
<rect width="16" height="16" fill="white"/>
</clipPath>
</defs>
</svg>
