<svg width="42" height="42" viewBox="0 0 42 42" fill="none" xmlns="http://www.w3.org/2000/svg">
<circle cx="21" cy="21" r="21" fill="#F6B704" fill-opacity="0.2"/>
<circle cx="21" cy="21" r="17" fill="#F6B909"/>
<path d="M20.9993 17.979C20.7117 17.979 20.4785 18.2122 20.4785 18.4998C20.4785 18.7875 20.7117 19.0207 20.9993 19.0207C21.287 19.0207 21.5202 18.7875 21.5202 18.4998C21.5202 18.2122 21.287 17.979 20.9993 17.979ZM20.9993 19.7498C20.7692 19.7498 20.5827 19.9364 20.5827 20.1665V23.5003C20.5828 23.7303 20.7693 23.9167 20.9993 23.9165C21.2293 23.9164 21.4162 23.7298 21.416 23.4998V20.1665C21.416 19.9364 21.2295 19.7498 20.9993 19.7498ZM20.9993 12.6665C16.397 12.6665 12.666 16.3975 12.666 20.9998C12.666 25.6022 16.397 29.3332 20.9993 29.3332C25.5995 29.3278 29.3273 25.6 29.3327 20.9998C29.3327 16.3975 25.6017 12.6665 20.9993 12.6665ZM20.9993 28.4998C16.8572 28.4998 13.4993 25.142 13.4993 20.9998C13.4993 16.8577 16.8572 13.4998 20.9993 13.4998C25.1396 13.5044 28.4948 16.8596 28.4993 20.9998C28.4993 25.142 25.1415 28.4998 20.9993 28.4998Z" fill="white"/>
</svg>
