<svg width="21" height="21" viewBox="0 0 21 21" fill="none" xmlns="http://www.w3.org/2000/svg">
<g clip-path="url(#clip0_1161_30048)">
<path d="M13.815 13.9418L10.5723 10.6991M10.5723 10.6991L7.32966 13.9418M10.5723 10.6991V17.9951M17.3739 15.8793C18.1646 15.4482 18.7892 14.7661 19.1492 13.9407C19.5091 13.1152 19.5839 12.1933 19.3618 11.3206C19.1397 10.4479 18.6333 9.674 17.9224 9.12107C17.2116 8.56814 16.3369 8.26766 15.4364 8.26707H14.4149C14.1696 7.31797 13.7122 6.43684 13.0773 5.68994C12.4424 4.94303 11.6464 4.34978 10.7492 3.95479C9.85195 3.55979 8.87687 3.37333 7.89722 3.40943C6.91758 3.44552 5.95887 3.70323 5.09316 4.16318C4.22745 4.62312 3.47728 5.27334 2.89903 6.06494C2.32079 6.85655 1.92952 7.76894 1.75465 8.73352C1.57978 9.69811 1.62586 10.6898 1.88941 11.634C2.15297 12.5782 2.62715 13.4504 3.2763 14.185" stroke="white" stroke-width="1.62459" stroke-linecap="round" stroke-linejoin="round"/>
</g>
<defs>
<clipPath id="clip0_1161_30048">
<rect width="19.4561" height="19.4561" fill="white" transform="translate(0.841797 0.971191)"/>
</clipPath>
</defs>
</svg>
