<svg width="24" height="24" viewBox="0 0 24 24" fill="none" xmlns="http://www.w3.org/2000/svg">
<path d="M18.5 2H7.5C5.56799 2.00232 4.00232 3.56799 4 5.5V18.5C4 20.433 5.56702 22 7.5 22H18.5H19.5C19.4998 22 19.5002 22 19.5 22C19.7759 21.9998 20.0002 21.776 20 21.5V20.5V15.5V3.5C19.9991 2.67194 19.3281 2.00092 18.5 2ZM19 20.5C18.9995 20.7759 18.7759 20.9995 18.5 21H7.5C6.11981 20.9987 5.00128 19.8802 5 18.5C5 17.1193 6.11926 16 7.5 16H19V20.5ZM19 15H7.5C6.51929 15 5.63544 15.4058 5 16.0556V5.5C5.00128 4.11981 6.11981 3.00128 7.5 3H18.5C18.7759 3.00055 18.9995 3.22406 19 3.5V15ZM14.5 7H9.5C9.22388 7 9 7.22388 9 7.5C9 7.77612 9.22388 8 9.5 8H14.5C14.7761 8 15 7.77612 15 7.5C15 7.22388 14.7761 7 14.5 7Z" fill="currentColor"/>
</svg>
