<svg width="24" height="24" viewBox="0 0 24 24" fill="none" xmlns="http://www.w3.org/2000/svg">
<g clip-path="url(#clip0_1346_16689)">
<path fill-rule="evenodd" clip-rule="evenodd" d="M5.52455 4.9027V5.78109H4.63805V4.9027H5.52455ZM5.52455 7.30697V8.18536H4.63805V7.30697H5.52455ZM5.52455 9.71119V10.5896H4.63805V9.71119H5.52455ZM5.52455 12.1155V12.9938H4.63805V12.1155H5.52455ZM7.653 4.9027V5.78109H6.7665V4.9027H7.653ZM7.653 7.30697V8.18536H6.7665V7.30697H7.653ZM7.653 9.71119V10.5896H6.7665V9.71119H7.653ZM7.653 12.1155V12.9938H6.7665V12.1155H7.653ZM22.3634 21.2112H1.6365V22.194H22.3635V21.2112H22.3634ZM18.4062 20.3247H20.8208V7.75059L18.4062 6.52294V20.3247V20.3247ZM11.954 20.3247H17.5197V6.24398H12.8864H12.8844H11.954V20.3247ZM9.85702 20.3247V2.08345L12.4431 3.39398V5.35744H11.5107C11.2659 5.35744 11.0675 5.55591 11.0675 5.80069V20.3246L9.85702 20.3247ZM1.19325 20.3247C0.948469 20.3247 0.75 20.5231 0.75 20.7679V22.6372C0.75 22.882 0.948469 23.0805 1.19325 23.0805H22.8067C23.0515 23.0805 23.25 22.882 23.25 22.6372V20.7679C23.25 20.5231 23.0515 20.3247 22.8067 20.3247H21.7074V7.47905H21.7072C21.707 7.3178 21.6186 7.16241 21.465 7.08426L18.1793 5.41378C18.1154 5.37792 18.0416 5.35744 17.963 5.35744H13.3297V3.12295H13.3287C13.3285 2.96147 13.2396 2.80589 13.0856 2.72817L9.64214 0.983156C9.57548 0.943031 9.49739 0.919922 9.41386 0.919922H2.96156C2.71678 0.919922 2.51831 1.11839 2.51831 1.36317V20.3246L1.19325 20.3247ZM6.77869 20.3247H5.59664V18.2153H6.77869V20.3247ZM4.71014 20.3247V17.7721C4.71014 17.5273 4.90861 17.3288 5.15339 17.3288H7.22194C7.46672 17.3288 7.66519 17.5273 7.66519 17.7721V20.3247H8.97052V1.80642H3.40481V20.3246L4.71014 20.3247ZM5.52455 14.5197V15.3981H4.63805V14.5197H5.52455ZM7.653 14.5197V15.3981H6.7665V14.5197H7.653ZM14.1697 9.34364V10.222H13.2832V9.34364H14.1697ZM14.1697 11.7479V12.6262H13.2832V11.7479H14.1697ZM14.1697 14.1521V15.0305H13.2832V14.1521H14.1697ZM16.2981 9.34364V10.222H15.4116V9.34364H16.2981ZM16.2981 11.7479V12.6262H15.4116V11.7479H16.2981ZM16.2981 14.1521V15.0305H15.4116V14.1521H16.2981ZM14.1697 16.5564V17.4348H13.2832V16.5564H14.1697ZM16.2981 16.5564V17.4348H15.4116V16.5564H16.2981Z" fill= "currentColor"/>
</g>
<defs>
<clipPath id="clip0_1346_16689">
<rect width="24" height="24" fill="currentColor"/>
</clipPath>
</defs>
</svg>
