<svg width="24" height="24" viewBox="0 0 24 24" fill="none" xmlns="http://www.w3.org/2000/svg">
<path d="M18.4175 8.21994C17.4349 5.94522 15.3218 4.36038 12.8629 4.05392C9.03057 3.57632 5.53668 6.29587 5.05908 10.1282C3.46649 10.5099 2.2691 11.8264 2.03979 13.448C1.73138 15.6289 3.24932 17.6469 5.43017 17.9554C5.45385 17.9584 5.47766 17.9601 5.50146 17.9602C5.75036 17.9599 5.96106 17.7766 5.99591 17.5302C6.03454 17.2567 5.84423 17.0038 5.5708 16.9651C4.24609 16.778 3.20715 15.7333 3.02752 14.4076C2.8059 12.7722 3.95202 11.2668 5.5874 11.0452C5.82214 11.0136 6.00244 10.8215 6.01904 10.5852C6.1773 8.26687 7.66143 6.24899 9.82739 5.40726C12.9125 4.20828 16.3855 5.73733 17.5845 8.82248C17.6447 8.97494 17.7756 9.08835 17.9351 9.12619C19.2548 9.44015 20.3244 10.4033 20.7745 11.683C21.5054 13.7609 20.4134 16.0379 18.3354 16.7688C18.0753 16.86 17.9382 17.1447 18.029 17.405C18.12 17.6656 18.405 17.8031 18.6655 17.7121C20.1803 17.1801 21.3464 15.9514 21.7986 14.4109C22.5745 11.7677 21.0607 8.99588 18.4175 8.21994ZM12.0005 18.8752C11.6553 18.8752 11.3755 19.1551 11.3755 19.5002C11.3755 19.8454 11.6553 20.1252 12.0005 20.1252C12.3456 20.1252 12.6255 19.8454 12.6255 19.5002C12.6255 19.1551 12.3456 18.8752 12.0005 18.8752ZM12.021 11.0002C11.0499 11.0049 10.1566 11.5322 9.6831 12.3801C9.54773 12.6206 9.63299 12.9254 9.87353 13.0608C10.1141 13.1961 10.4188 13.1109 10.5542 12.8703C10.8508 12.3374 11.4111 12.005 12.021 12.0002C12.9721 12.0163 13.7308 12.799 13.7173 13.7502C13.7223 14.497 13.2528 15.1646 12.5483 15.4123C11.9499 15.5957 11.5343 16.1393 11.5142 16.7649L11.5005 17.4904C11.4953 17.7665 11.7147 17.9946 11.9907 18.0002H12.0005C12.2728 18.0002 12.4951 17.7823 12.5005 17.51L12.5142 16.7795C12.533 16.5768 12.6772 16.4079 12.8745 16.3576C13.9577 15.977 14.6916 14.9649 14.7169 13.817C14.7502 12.2948 13.5433 11.0336 12.021 11.0002Z" fill="currentColor" stroke="currentColor" stroke-width="0.3"/>
</svg>
