<svg width="24" height="24" viewBox="0 0 24 24" fill="none" xmlns="http://www.w3.org/2000/svg">
<path d="M20.659 7.75103H17C16.8011 7.75103 16.6103 7.67201 16.4697 7.53136C16.329 7.3907 16.25 7.19994 16.25 7.00103C16.25 6.80211 16.329 6.61135 16.4697 6.4707C16.6103 6.33004 16.8011 6.25103 17 6.25103H19.956L20.169 2.95103C20.1851 2.75322 20.2777 2.56947 20.427 2.43879C20.5764 2.3081 20.7708 2.24075 20.969 2.25103C21.0676 2.25725 21.164 2.28292 21.2527 2.32656C21.3413 2.37021 21.4205 2.43096 21.4855 2.50532C21.5506 2.57968 21.6003 2.66618 21.6318 2.75984C21.6633 2.8535 21.6759 2.95246 21.669 3.05103L21.411 7.05103C21.3985 7.24158 21.3137 7.42017 21.1739 7.55028C21.0342 7.68039 20.85 7.7522 20.659 7.75103Z" fill="currentColor"/>
<path d="M11.9997 22.75C10.1128 22.7496 8.25922 22.2526 6.62527 21.3088C4.99131 20.365 3.63455 19.0078 2.69134 17.3736C1.74814 15.7393 1.25171 13.8855 1.25195 11.9986C1.2522 10.1117 1.74911 8.25806 2.69274 6.62404C3.63637 4.99001 4.99348 3.63314 6.62768 2.68981C8.26187 1.74647 10.1156 1.2499 12.0025 1.25C13.8894 1.2501 15.7431 1.74686 17.3772 2.69037C19.0113 3.63387 20.3683 4.99088 21.3117 6.625C21.4112 6.79739 21.4381 7.00223 21.3865 7.19445C21.3349 7.38668 21.2091 7.55054 21.0367 7.65C20.8643 7.74946 20.6595 7.77636 20.4673 7.72478C20.275 7.67321 20.1112 7.54739 20.0117 7.375C18.89 5.43042 17.0995 3.95998 14.9739 3.23766C12.8484 2.51534 10.5327 2.5904 8.45839 3.44886C6.38407 4.30733 4.69259 5.89063 3.69912 7.90378C2.70564 9.91692 2.47792 12.2226 3.0584 14.3912C3.63888 16.5598 4.98796 18.4434 6.85427 19.691C8.72059 20.9387 10.9768 21.4653 13.2026 21.1727C15.4284 20.8801 17.4719 19.7883 18.9524 18.1008C20.4329 16.4132 21.2494 14.2449 21.2497 12C21.2497 11.8011 21.3287 11.6103 21.4694 11.4697C21.61 11.329 21.8008 11.25 21.9997 11.25C22.1986 11.25 22.3894 11.329 22.5301 11.4697C22.6707 11.6103 22.7497 11.8011 22.7497 12C22.7465 14.8501 21.6129 17.5826 19.5976 19.5979C17.5823 21.6132 14.8498 22.7468 11.9997 22.75Z" fill="currentColor"/>
<path d="M15.999 15.75C15.837 15.7499 15.6795 15.6973 15.55 15.6L11.55 12.6C11.4569 12.5301 11.3812 12.4396 11.3292 12.3354C11.2771 12.2313 11.25 12.1164 11.25 12V7C11.25 6.80109 11.329 6.61032 11.4697 6.46967C11.6103 6.32902 11.8011 6.25 12 6.25C12.1989 6.25 12.3897 6.32902 12.5303 6.46967C12.671 6.61032 12.75 6.80109 12.75 7V11.625L16.45 14.4C16.576 14.4945 16.669 14.6263 16.716 14.7766C16.7629 14.927 16.7613 15.0883 16.7114 15.2376C16.6614 15.387 16.5658 15.5169 16.4379 15.6089C16.3101 15.7008 16.1565 15.7502 15.999 15.75Z" fill="currentColor"/>
</svg>
