<svg width="32" height="32" viewBox="0 0 32 32" fill="none" xmlns="http://www.w3.org/2000/svg">
<g clip-path="url(#clip0_530_17210)">
<path d="M23.2008 15.9998C23.2008 16.4798 22.8008 16.7998 22.4008 16.7998H16.8008V22.3998C16.8008 22.8798 16.4008 23.1998 16.0008 23.1998C15.6008 23.1998 15.2008 22.8798 15.2008 22.3998V16.7998H9.60078C9.20078 16.7998 8.80078 16.4798 8.80078 15.9998C8.80078 15.5198 9.20078 15.1998 9.60078 15.1998H15.2008V9.5998C15.2008 9.1198 15.6008 8.7998 16.0008 8.7998C16.4008 8.7998 16.8008 9.1198 16.8008 9.5998V15.1998H22.4008C22.8008 15.1998 23.2008 15.5198 23.2008 15.9998Z" fill="white"/>
<path d="M16 32C7.2 32 0 24.8 0 16C0 7.2 7.2 0 16 0C19.6 0 22.96 1.2 25.84 3.36C26.16 3.6 26.24 4.16 26 4.48C25.76 4.8 25.2 4.88 24.88 4.64C22.32 2.64 19.2 1.6 16 1.6C8.08 1.6 1.6 8.08 1.6 16C1.6 23.92 8.08 30.4 16 30.4C23.92 30.4 30.4 23.92 30.4 16C30.4 13.44 29.68 10.88 28.4 8.64C28.16 8.24 28.32 7.76 28.64 7.52C29.04 7.28 29.52 7.44 29.76 7.76C31.2 10.32 32 13.12 32 16C32 24.8 24.8 32 16 32Z" fill="white"/>
</g>
<defs>
<clipPath id="clip0_530_17210">
<rect width="32" height="32" fill="white"/>
</clipPath>
</defs>
</svg>
