<svg width="19" height="19" viewBox="0 0 19 19" fill="none" xmlns="http://www.w3.org/2000/svg">
<path d="M7.47127 0.0795898C7.73594 0.0796229 7.99721 0.13915 8.23577 0.253769C8.47433 0.368388 8.68408 0.535167 8.84949 0.741772L10.0856 2.28687H16.7242C17.1925 2.28687 17.6416 2.47291 17.9728 2.80406C18.3039 3.13522 18.49 3.58436 18.49 4.05269V14.2062C18.49 14.6745 18.3039 15.1236 17.9728 15.4548C17.6416 15.7859 17.1925 15.972 16.7242 15.972H2.59761C2.12928 15.972 1.68014 15.7859 1.34898 15.4548C1.01783 15.1236 0.831787 14.6745 0.831787 14.2062V1.84541C0.831787 1.37709 1.01783 0.927942 1.34898 0.596787C1.68014 0.265631 2.12928 0.0795898 2.59761 0.0795898H7.47127ZM7.47127 1.84541H2.59761V14.2062H16.7242V4.05269H10.0847C9.82002 4.05265 9.55874 3.99313 9.32018 3.87851C9.08162 3.76389 8.87188 3.59711 8.70646 3.3905L7.47127 1.84541ZM9.66089 5.37705C9.89505 5.37705 10.1196 5.47007 10.2852 5.63565C10.4508 5.80123 10.5438 6.0258 10.5438 6.25996V8.02578H12.3096C12.5438 8.02578 12.7684 8.1188 12.9339 8.28438C13.0995 8.44996 13.1925 8.67453 13.1925 8.90869C13.1925 9.14285 13.0995 9.36742 12.9339 9.533C12.7684 9.69858 12.5438 9.7916 12.3096 9.7916H10.5438V11.5574C10.5438 11.7916 10.4508 12.0162 10.2852 12.1817C10.1196 12.3473 9.89505 12.4403 9.66089 12.4403C9.42673 12.4403 9.20215 12.3473 9.03658 12.1817C8.871 12.0162 8.77798 11.7916 8.77798 11.5574V9.7916H7.01216C6.778 9.7916 6.55342 9.69858 6.38785 9.533C6.22227 9.36742 6.12925 9.14285 6.12925 8.90869C6.12925 8.67453 6.22227 8.44996 6.38785 8.28438C6.55342 8.1188 6.778 8.02578 7.01216 8.02578H8.77798V6.25996C8.77798 6.0258 8.871 5.80123 9.03658 5.63565C9.20215 5.47007 9.42673 5.37705 9.66089 5.37705Z" fill="white"/>
</svg>
