<svg width="24" height="24" viewBox="0 0 24 24" fill="none" xmlns="http://www.w3.org/2000/svg">
<path d="M13.1877 5.75305C12.8935 5.24324 12.4606 4.95093 11.9995 4.95093C11.5384 4.95093 11.1063 5.24268 10.8121 5.7523L4.32457 16.9911C4.03038 17.5009 3.99363 18.0223 4.22407 18.4213C4.4545 18.8203 4.92419 19.0491 5.51238 19.0491H18.4874C19.0758 19.0491 19.5454 18.8203 19.7757 18.4213C20.0059 18.0223 19.9698 17.5012 19.6756 16.9918L13.1877 5.75305ZM19.0909 18.0253C19.0054 18.1725 18.7859 18.2572 18.4879 18.2572H5.51238C5.21444 18.2572 4.99488 18.1725 4.90975 18.0253C4.82463 17.8781 4.861 17.6449 5.01025 17.3867L11.4978 6.14793C11.6466 5.89012 11.8294 5.74237 11.9995 5.74237C12.1696 5.74237 12.3531 5.89049 12.502 6.14868L18.9895 17.3872C19.1391 17.6454 19.1759 17.8777 19.0909 18.0253Z" fill="#FF3F2F"/>
<path d="M11.9993 14.6522C12.0513 14.6522 12.1028 14.642 12.1508 14.6221C12.1989 14.6023 12.2425 14.5731 12.2793 14.5363C12.316 14.4996 12.3452 14.4559 12.3651 14.4079C12.3849 14.3599 12.3952 14.3084 12.3951 14.2564V9.04523C12.3951 8.94025 12.3534 8.83957 12.2792 8.76534C12.205 8.69112 12.1043 8.64941 11.9993 8.64941C11.8944 8.64941 11.7937 8.69112 11.7194 8.76534C11.6452 8.83957 11.6035 8.94025 11.6035 9.04523V14.2564C11.6035 14.3084 11.6137 14.3599 11.6336 14.4079C11.6535 14.4559 11.6826 14.4996 11.7194 14.5363C11.7562 14.5731 11.7998 14.6023 11.8478 14.6221C11.8959 14.642 11.9473 14.6522 11.9993 14.6522Z" fill="#FF3F2F"/>
<path d="M12.0009 16.9198C12.3876 16.9198 12.701 16.6063 12.701 16.2197C12.701 15.833 12.3876 15.5195 12.0009 15.5195C11.6142 15.5195 11.3008 15.833 11.3008 16.2197C11.3008 16.6063 11.6142 16.9198 12.0009 16.9198Z" fill="#FF3F2F"/>
</svg>
