<svg width="33" height="33" viewBox="0 0 33 33" fill="none" xmlns="http://www.w3.org/2000/svg">
<path d="M22.3917 8.13886V23.7227C22.3917 26.7175 19.966 29.1432 16.9712 29.1432C13.9764 29.1432 11.5507 26.7175 11.5507 23.7227V6.78375C11.5507 5.88525 11.9077 5.02355 12.543 4.38822C13.1783 3.75288 14.04 3.39596 14.9385 3.39596C15.837 3.39596 16.6987 3.75288 17.3341 4.38822C17.9694 5.02355 18.3263 5.88525 18.3263 6.78375V21.0125C18.3263 21.7578 17.7165 22.3676 16.9712 22.3676C16.2259 22.3676 15.6161 21.7578 15.6161 21.0125V8.13886H13.5834V21.0125C13.5834 21.911 13.9403 22.7727 14.5757 23.408C15.211 24.0433 16.0727 24.4003 16.9712 24.4003C17.8697 24.4003 18.7314 24.0433 19.3667 23.408C20.0021 22.7727 20.359 21.911 20.359 21.0125V6.78375C20.359 3.78894 17.9333 1.36328 14.9385 1.36328C11.9437 1.36328 9.51807 3.78894 9.51807 6.78375V23.7227C9.51807 27.8423 12.8517 31.1758 16.9712 31.1758C21.0908 31.1758 24.4243 27.8423 24.4243 23.7227V8.13886H22.3917Z" fill="white"/>
</svg>
