<svg width="52" height="29" viewBox="0 0 52 29" fill="none" xmlns="http://www.w3.org/2000/svg">
<rect x="0.481676" y="0.481676" width="50.2672" height="27.498" rx="13.749" stroke="#008EC3" stroke-width="0.963353"/>
<path d="M47.346 13.673C47.346 19.5676 42.5676 24.346 36.673 24.346C30.7785 24.346 26 19.5676 26 13.673C26 7.77847 30.7785 3 36.673 3C42.5676 3 47.346 7.77847 47.346 13.673Z" fill="#008EC3"/>
<path d="M36.7975 14.0434C35.5025 11.6842 36.5196 9.60739 37.0921 8.77563C34.1129 8.87503 31.7285 11.1715 31.7285 14.0016C31.7285 14.0748 31.7396 14.148 31.7396 14.2213C32.0842 14.08 32.4566 14.0016 32.8513 14.0016C33.7739 14.0016 34.6187 14.4357 35.1301 15.1263C35.5944 15.2521 36.0027 15.5166 36.2934 15.8799C36.5841 16.2431 36.7415 16.6855 36.7419 17.1403C36.7419 17.9354 36.2584 18.6207 35.5636 18.9764C36.1083 19.1438 36.6919 19.2379 37.2922 19.2379C39.2375 19.2379 40.9494 18.2963 41.9443 16.8735C40.6326 16.9938 38.0648 16.366 36.7975 14.0434Z" fill="#D8D8D8"/>
<path d="M34.5204 16.0941H34.4204C34.1869 15.4873 33.5755 15.0479 32.853 15.0479C31.9303 15.0479 31.1855 15.7488 31.1855 16.6172C31.1855 17.4856 31.9303 18.1865 32.853 18.1865H34.5204C35.1318 18.1865 35.632 17.7157 35.632 17.1403C35.632 16.5649 35.1318 16.0941 34.5204 16.0941Z" fill="#D8D8D8"/>
</svg>
