<svg width="19" height="19" viewBox="0 0 19 19" fill="none" xmlns="http://www.w3.org/2000/svg">
<path d="M2.31348 4.62695H3.85579H16.1943" stroke="#F14041" stroke-linecap="round" stroke-linejoin="round"/>
<path d="M6.1693 4.6271V3.08479C6.1693 2.67574 6.33179 2.28345 6.62103 1.99421C6.91027 1.70497 7.30256 1.54248 7.71161 1.54248H10.7962C11.2053 1.54248 11.5976 1.70497 11.8868 1.99421C12.176 2.28345 12.3385 2.67574 12.3385 3.08479V4.6271M14.652 4.6271V15.4233C14.652 15.8323 14.4895 16.2246 14.2003 16.5139C13.911 16.8031 13.5187 16.9656 13.1097 16.9656H5.39815C4.9891 16.9656 4.59681 16.8031 4.30757 16.5139C4.01833 16.2246 3.85583 15.8323 3.85583 15.4233V4.6271H14.652Z" stroke="#F14041" stroke-linecap="round" stroke-linejoin="round"/>
<path d="M7.71155 8.48291V13.1098" stroke="#F14041" stroke-linecap="round" stroke-linejoin="round"/>
<path d="M10.7961 8.48291V13.1098" stroke="#F14041" stroke-linecap="round" stroke-linejoin="round"/>
</svg>
