<svg width="62" height="62" viewBox="0 0 62 62" fill="none" xmlns="http://www.w3.org/2000/svg">
<g clip-path="url(#clip0_1179_39395)">
<path d="M1.72403 31.203C1.7944 23.6259 4.90189 16.3828 10.3704 11.0493C15.839 5.71585 23.2261 2.72363 30.9247 2.72363C38.6233 2.72363 46.0105 5.71585 51.479 11.0493C56.9476 16.3828 60.0551 23.6259 60.1254 31.203C60.0551 38.78 56.9476 46.0231 51.479 51.3566C46.0105 56.6901 38.6233 59.6823 30.9247 59.6823C23.2261 59.6823 15.839 56.6901 10.3704 51.3566C4.90189 46.0231 1.7944 38.78 1.72403 31.203ZM12.717 31.219C12.717 35.9789 14.6381 40.5438 18.0576 43.9095C21.4772 47.2752 26.1151 49.166 30.9511 49.166C35.7871 49.166 40.425 47.2752 43.8446 43.9095C47.2641 40.5438 49.1852 35.9789 49.1852 31.219C49.1852 26.4592 47.2641 21.8943 43.8446 18.5286C40.425 15.1629 35.7871 13.2721 30.9511 13.2721C26.1151 13.2721 21.4772 15.1629 18.0576 18.5286C14.6381 21.8943 12.717 26.4592 12.717 31.219Z" fill="white" fill-opacity="0.1"/>
<path d="M12.7169 31.2199C12.7169 26.4601 14.638 21.8952 18.0576 18.5295C21.4771 15.1638 26.115 13.2729 30.951 13.2729C35.787 13.2729 40.4249 15.1638 43.8445 18.5295C47.2641 21.8952 49.1852 26.4601 49.1852 31.2199C49.1852 35.9797 47.2641 40.5446 43.8445 43.9103C40.4249 47.2761 35.787 49.1669 30.951 49.1669C26.115 49.1669 21.4771 47.2761 18.0576 43.9103C14.638 40.5446 12.7169 35.9797 12.7169 31.2199ZM23.7899 39.7556C23.3409 39.9909 23.1018 41.6865 23.4458 42.2076C23.5093 42.3061 26.7398 42.3877 30.6219 42.3877C34.5674 42.3877 37.9565 42.2845 38.303 42.1572C39.2863 41.7873 39.4034 40.7835 38.5397 40.0894C37.7589 39.4602 24.905 39.1672 23.7899 39.7556ZM26.7716 34.1335C27.8915 35.207 29.2213 36.5303 29.724 37.0754C30.2266 37.6182 30.8049 38.0649 31.0098 38.0649C31.2124 38.0649 32.9179 36.5255 34.8016 34.645C38.2249 31.2252 38.2249 31.2252 38.1542 30.1421C38.0322 28.3289 37.3294 28.4922 35.0261 30.8674C32.3787 33.5908 32.4763 33.7541 32.425 26.5277C32.3787 19.9042 32.3592 19.8129 30.9732 19.8129C29.7728 19.8129 29.663 20.3989 29.663 26.8303C29.663 33.7877 29.8045 33.5595 27.1693 30.865C25.0928 28.7444 24.5926 28.5619 23.7801 29.6426C23.1408 30.4951 23.4288 30.9298 26.7716 34.1335Z" fill="#3FB5FF"/>
<path d="M26.7716 34.1331C23.4288 30.9294 23.1408 30.4947 23.7801 29.6421C24.5926 28.5614 25.0928 28.744 27.1693 30.8645C29.8045 33.5591 29.663 33.7873 29.663 26.8299C29.663 20.3985 29.7728 19.8125 30.9732 19.8125C32.3592 19.8125 32.3787 19.9038 32.425 26.5273C32.4763 33.7536 32.3787 33.5903 35.0261 30.8669C37.3294 28.4918 38.0322 28.3285 38.1542 30.1417C38.2249 31.2248 38.2249 31.2248 34.8016 34.6446C32.9179 36.5251 31.2124 38.0645 31.0098 38.0645C30.8049 38.0645 30.2266 37.6178 29.724 37.075C29.2213 36.5299 27.8915 35.2066 26.7716 34.1331Z" fill="white" fill-opacity="0.1"/>
<path d="M23.7899 39.7549C24.905 39.1665 37.7589 39.4595 38.5397 40.0887C39.4034 40.7828 39.2863 41.7866 38.303 42.1565C37.9565 42.2838 34.5674 42.387 30.6219 42.387C26.7398 42.387 23.5093 42.3054 23.4458 42.2069C23.1018 41.6858 23.3409 39.9903 23.7899 39.7549Z" fill="white" fill-opacity="0.1"/>
</g>
<defs>
<clipPath id="clip0_1179_39395">
<rect width="61" height="61" fill="white" transform="translate(0.626953 0.839844)"/>
</clipPath>
</defs>
</svg>
