<svg width="26" height="26" viewBox="0 0 26 26" fill="none" xmlns="http://www.w3.org/2000/svg">
<path d="M12.0433 5.06665H4.87432C4.33109 5.06665 3.8101 5.28245 3.42597 5.66657C3.04185 6.0507 2.82605 6.57169 2.82605 7.11492V21.4528C2.82605 21.9961 3.04185 22.517 3.42597 22.9012C3.8101 23.2853 4.33109 23.5011 4.87432 23.5011H19.2122C19.7555 23.5011 20.2764 23.2853 20.6606 22.9012C21.0447 22.517 21.2605 21.9961 21.2605 21.4528V14.2839" stroke="white" stroke-width="2.04827" stroke-linecap="round" stroke-linejoin="round"/>
<path d="M19.7243 3.5306C20.1317 3.12318 20.6843 2.89429 21.2605 2.89429C21.8367 2.89429 22.3893 3.12318 22.7967 3.5306C23.2041 3.93803 23.433 4.49062 23.433 5.06681C23.433 5.64299 23.2041 6.19558 22.7967 6.60301L13.0674 16.3323L8.97086 17.3564L9.99499 13.2599L19.7243 3.5306Z" stroke="white" stroke-width="2.04827" stroke-linecap="round" stroke-linejoin="round"/>
</svg>
