<svg width="37" height="37" viewBox="0 0 37 37" fill="none" xmlns="http://www.w3.org/2000/svg">
<path d="M11.4028 29.9707H8.50713C4.07319 29.654 2.08252 26.2456 2.08252 23.2142C2.08252 20.1828 4.07321 16.7594 8.43174 16.4577C9.05008 16.3974 9.59299 16.88 9.63823 17.5134C9.68348 18.1318 9.21603 18.6747 8.58261 18.7199C5.65681 18.9311 4.34473 21.133 4.34473 23.2293C4.34473 25.3256 5.65681 27.5275 8.58261 27.7386H11.4028C12.0212 27.7386 12.5339 28.2514 12.5339 28.8697C12.5339 29.4881 12.0212 29.9707 11.4028 29.9707Z" fill="white"/>
<path d="M25.2921 29.9707C25.262 29.9707 25.2469 29.9707 25.2167 29.9707C24.5984 29.9707 24.0253 29.4579 24.0253 28.8396C24.0253 28.1911 24.5079 27.7085 25.1413 27.7085C26.9964 27.7085 28.6553 27.06 29.9523 25.8987C32.305 23.8476 32.4558 20.8917 31.8224 18.8104C31.189 16.7443 29.4245 14.3765 26.3478 13.9995C25.8502 13.9391 25.458 13.5621 25.3675 13.0644C24.7643 9.44489 22.8188 6.94136 19.8629 6.03648C16.8164 5.08635 13.2571 6.0214 11.0402 8.34393C8.88353 10.5911 8.38585 13.7431 9.63761 17.2118C9.84875 17.8 9.54719 18.4485 8.95902 18.6596C8.37084 18.8708 7.72231 18.5691 7.51117 17.981C5.98795 13.728 6.68171 9.65602 9.41144 6.79055C12.2015 3.86476 16.6807 2.70347 20.5264 3.87982C24.0555 4.96569 26.5439 7.8764 27.4488 11.9182C30.5254 12.612 32.9987 14.9496 33.979 18.177C35.0498 21.691 34.0846 25.3105 31.4454 27.6029C29.7713 29.1111 27.5845 29.9707 25.2921 29.9707Z" fill="white"/>
<path d="M18.2495 34.4042C15.2181 34.4042 12.3828 32.7905 10.8294 30.1814C10.6635 29.925 10.4976 29.6234 10.3619 29.2916C9.84913 28.2208 9.57764 26.9992 9.57764 25.7324C9.57764 20.9516 13.4686 17.0605 18.2495 17.0605C23.0303 17.0605 26.9213 20.9516 26.9213 25.7324C26.9213 27.0143 26.6498 28.2208 26.1069 29.3368C25.9863 29.6234 25.8204 29.925 25.6394 30.2115C24.1162 32.7905 21.2808 34.4042 18.2495 34.4042ZM18.2495 19.3228C14.7204 19.3228 11.8398 22.2033 11.8398 25.7324C11.8398 26.6674 12.0359 27.5421 12.413 28.3414C12.5336 28.5978 12.6391 28.809 12.7598 29.005C13.906 30.9505 16.0023 32.142 18.2344 32.142C20.4664 32.142 22.5627 30.9505 23.6938 29.0352C23.8296 28.809 23.9503 28.5978 24.0408 28.3867C24.448 27.5572 24.644 26.6825 24.644 25.7474C24.659 22.2033 21.7785 19.3228 18.2495 19.3228Z" fill="white"/>
<path d="M17.39 28.3563C17.1034 28.3563 16.8169 28.2508 16.5907 28.0246L15.0976 26.5315C14.6602 26.0941 14.6602 25.3702 15.0976 24.9329C15.5349 24.4955 16.2588 24.4955 16.6962 24.9329L17.4201 25.6568L19.8331 23.4247C20.3007 23.0024 21.0095 23.0326 21.4318 23.485C21.854 23.9375 21.8239 24.6614 21.3715 25.0837L18.1591 28.0547C17.9329 28.2508 17.6614 28.3563 17.39 28.3563Z" fill="white"/>
</svg>
