<svg width="84" height="82" viewBox="0 0 84 82" fill="none" xmlns="http://www.w3.org/2000/svg">
<g clip-path="url(#clip0_1168_35715)">
<path fill-rule="evenodd" clip-rule="evenodd" d="M16.3302 17.0002H25.5552C26.9033 16.9883 28.2028 17.5032 29.1769 18.4352C31.2952 20.3485 32.7302 21.3735 33.6185 21.3735C34.4385 21.3735 29.9285 25.2002 20.0202 32.8535C19.1908 33.4917 18.1992 33.8848 17.1579 33.9883C16.1165 34.0919 15.067 33.9017 14.1281 33.4394C13.1893 32.9771 12.3987 32.2611 11.8458 31.3725C11.293 30.484 11.0001 29.4584 11.0002 28.4119V22.3985C10.9941 21.6937 11.1273 20.9945 11.3921 20.3412C11.657 19.688 12.0482 19.0935 12.5435 18.5919C13.0388 18.0903 13.6282 17.6914 14.2781 17.4183C14.9279 17.1451 15.6253 17.0031 16.3302 17.0002Z" fill="#3D96E1"/>
<path fill-rule="evenodd" clip-rule="evenodd" d="M28.1518 21.3052H68.2634C69.6765 21.307 71.0312 21.8691 72.0303 22.8683C73.0295 23.8675 73.5916 25.2221 73.5934 26.6352V38.6618C73.5916 40.0749 73.0295 41.4295 72.0303 42.4287C71.0312 43.4279 69.6765 43.99 68.2634 43.9918H28.1518C26.7387 43.99 25.3841 43.4279 24.3849 42.4287C23.3857 41.4295 22.8236 40.0749 22.8218 38.6618V26.6352C22.8352 25.2257 23.401 23.8778 24.3977 22.8811C25.3944 21.8844 26.7423 21.3186 28.1518 21.3052Z" fill="#3D96E1"/>
<path fill-rule="evenodd" clip-rule="evenodd" d="M15.5784 24.5853H69.0151C69.1856 24.5851 69.3545 24.6186 69.5121 24.6839C69.6697 24.7491 69.8128 24.8447 69.9334 24.9653C70.054 25.0859 70.1496 25.229 70.2148 25.3866C70.28 25.5442 70.3135 25.7131 70.3134 25.8836V45.9053C70.3135 46.0758 70.28 46.2447 70.2148 46.4023C70.1496 46.5598 70.054 46.703 69.9334 46.8236C69.8128 46.9442 69.6697 47.0398 69.5121 47.105C69.3545 47.1702 69.1856 47.2037 69.0151 47.2036H15.5784C15.4079 47.2037 15.239 47.1702 15.0814 47.105C14.9239 47.0398 14.7807 46.9442 14.6601 46.8236C14.5395 46.703 14.4439 46.5598 14.3787 46.4023C14.3135 46.2447 14.28 46.0758 14.2801 45.9053V25.8836C14.2684 25.7101 14.294 25.5361 14.3551 25.3733C14.4163 25.2105 14.5115 25.0626 14.6345 24.9397C14.7574 24.8167 14.9053 24.7214 15.0681 24.6603C15.2309 24.5992 15.4049 24.5736 15.5784 24.5853Z" fill="white"/>
<path fill-rule="evenodd" clip-rule="evenodd" d="M13.6652 26.7036H70.9286C71.6351 26.7045 72.3125 26.9855 72.8121 27.4851C73.3117 27.9847 73.5927 28.6621 73.5936 29.3686V59.1619C73.5918 60.575 73.0296 61.9296 72.0305 62.9288C71.0313 63.928 69.6766 64.4901 68.2636 64.4919H16.3302C14.9172 64.4901 13.5625 63.928 12.5634 62.9288C11.5642 61.9296 11.0021 60.575 11.0002 59.1619V29.3686C11.0011 28.6621 11.2822 27.9847 11.7818 27.4851C12.2814 26.9855 12.9587 26.7045 13.6652 26.7036Z" fill="url(#paint0_linear_1168_35715)"/>
</g>
<defs>
<linearGradient id="paint0_linear_1168_35715" x1="42.2916" y1="64.4982" x2="42.2916" y2="26.7116" gradientUnits="userSpaceOnUse">
<stop stop-color="#6DB8F6"/>
<stop offset="1" stop-color="#3D96E1"/>
</linearGradient>
<clipPath id="clip0_1168_35715">
<rect width="83.7716" height="82" fill="white" transform="translate(0.151367)"/>
</clipPath>
</defs>
</svg>
