<svg width="67" height="67" viewBox="0 0 67 67" fill="none" xmlns="http://www.w3.org/2000/svg">
<g clip-path="url(#clip0_2072_14785)">
<path d="M33.5 67C52.0015 67 67 52.0015 67 33.5C67 14.9985 52.0015 0 33.5 0C14.9985 0 0 14.9985 0 33.5C0 52.0015 14.9985 67 33.5 67Z" fill="#4FA3E9"/>
<path d="M47.826 25.0171C47.8005 24.7574 47.6884 24.5139 47.5078 24.3256L37.9364 14.7541C37.9029 14.7254 37.855 14.723 37.8215 14.6967C37.5993 14.48 37.3015 14.3582 36.9912 14.3569H23.9381C22.667 14.3576 21.448 14.8627 20.5489 15.7613C19.6498 16.6599 19.1441 17.8786 19.1429 19.1498V45.4569C19.1429 48.101 21.294 50.2498 23.9381 50.2498H43.0642C44.335 50.2485 45.5534 49.7432 46.4519 48.8446C47.3505 47.946 47.8559 46.7277 47.8571 45.4569V25.175C47.8571 25.12 47.8332 25.0698 47.826 25.0171ZM38.2857 18.5253L43.7654 23.9762H40.6522C40.3416 23.9765 40.0339 23.9156 39.7468 23.7969C39.4597 23.6783 39.1988 23.5042 38.979 23.2846C38.7592 23.0651 38.5849 22.8043 38.4659 22.5173C38.3469 22.2304 38.2857 21.9227 38.2857 21.6121V18.5253Z" fill="white"/>
</g>
<defs>
<clipPath id="clip0_2072_14785">
<rect width="67" height="67" fill="white"/>
</clipPath>
</defs>
</svg>
