<svg width="24" height="24" viewBox="0 0 24 24" fill="none" xmlns="http://www.w3.org/2000/svg">
<path d="M20.9579 16.5527L20.5071 15.8027C19.9227 14.829 19.614 13.7148 19.6139 12.5792V8.43919C19.6139 4.24069 16.1991 0.825195 12.0006 0.825195C7.80211 0.825195 4.38736 4.24069 4.38736 8.43844V12.5784C4.38736 13.7139 4.07836 14.8284 3.49411 15.8019L3.04336 16.5527C2.86472 16.846 2.76818 17.182 2.76383 17.5254C2.75947 17.8689 2.84747 18.2072 3.01861 18.5049C3.18583 18.805 3.43063 19.0545 3.72737 19.2275C4.02411 19.4005 4.36189 19.4905 4.70536 19.4882H19.2966C20.0039 19.4882 20.6346 19.1207 20.9834 18.5049C21.1542 18.207 21.242 17.8687 21.2375 17.5253C21.233 17.1819 21.1365 16.846 20.9579 16.5527ZM19.8081 17.8397C19.7577 17.931 19.6836 18.0069 19.5935 18.0595C19.5035 18.1121 19.4009 18.1392 19.2966 18.1382H4.70461C4.60031 18.1394 4.49764 18.1123 4.40756 18.0597C4.31747 18.0071 4.24335 17.9311 4.19311 17.8397C4.14071 17.7496 4.11373 17.647 4.11505 17.5428C4.11637 17.4386 4.14594 17.3367 4.20061 17.2479L4.65136 16.4979C5.36186 15.3143 5.73724 13.9597 5.73736 12.5792V8.43919C5.73661 4.98469 8.54686 2.1752 12.0006 2.1752C15.4544 2.1752 18.2646 4.98544 18.2646 8.43919V12.5792C18.2646 13.9592 18.6396 15.3144 19.3506 16.4979L19.8014 17.2479C19.8558 17.3368 19.8851 17.4387 19.8863 17.5429C19.8875 17.6471 19.8605 17.7496 19.8081 17.8397ZM14.3159 20.8187C13.8231 21.4487 12.9576 21.8252 12.0006 21.8252C11.0436 21.8252 10.1781 21.4487 9.68536 20.8187C9.57255 20.685 9.4123 20.6003 9.2383 20.5823C9.0643 20.5643 8.89011 20.6146 8.75237 20.7224C8.61463 20.8302 8.52407 20.9872 8.49973 21.1605C8.47539 21.3337 8.51917 21.5096 8.62186 21.6512C9.36811 22.6052 10.6319 23.1752 12.0006 23.1752C13.3694 23.1752 14.6331 22.6052 15.3794 21.6504C15.4896 21.5094 15.5394 21.3303 15.5178 21.1525C15.4961 20.9748 15.4048 20.8129 15.2639 20.7024C15.1225 20.5926 14.9435 20.5432 14.7659 20.565C14.5882 20.5868 14.4265 20.678 14.3159 20.8187Z" fill="#6F6C8F"/>
<circle cx="17.5" cy="4.5" r="3.5" fill="#F66104"/>
</svg>
