<svg width="70" height="70" viewBox="0 0 70 70" fill="none" xmlns="http://www.w3.org/2000/svg">
<path d="M10.4997 4.91984V65.0783C10.4997 67.0687 12.1132 68.6822 14.1036 68.6822H57.9274C59.9178 68.6822 61.5313 67.0687 61.5313 65.0783V14.7945L48.0617 1.31592H14.1036C12.1132 1.31592 10.4997 2.92945 10.4997 4.91984Z" fill="#EEEEEE"/>
<path d="M61.5337 14.7953V65.0806C61.5337 67.0709 59.9203 68.6843 57.9301 68.6843H14.1026C12.5884 68.6843 11.2938 67.7531 10.7639 66.4282C11.1803 66.6023 11.6347 66.6931 12.1115 66.6931H43.7673C52.4797 66.6931 59.5425 59.6303 59.5425 50.9179V12.8042L61.5337 14.7953Z" fill="#DEE0DF"/>
<path d="M48.0618 2.2749V12.1496C48.0618 14.14 49.6753 15.7535 51.6657 15.7535H61.5314V14.7946L48.0618 2.2749Z" fill="#EDEDED"/>
<path d="M48.0618 1.31592V11.1906C48.0618 13.181 49.6753 14.7945 51.6657 14.7945H61.5314L48.0618 1.31592Z" fill="#F34B50"/>
<path d="M36.1518 46.8569H10.4997V60.5215H36.1518C37.2377 60.5215 38.1181 59.6411 38.1181 58.5551V48.8232C38.1181 47.7373 37.2377 46.8569 36.1518 46.8569Z" fill="#EDEDED"/>
<path d="M8.46619 47.815V57.5469C8.46619 58.6328 9.34654 59.5132 10.4325 59.5132H35.4729C36.5588 59.5132 37.4392 58.6328 37.4392 57.5469V47.815C37.4392 46.729 36.5588 45.8486 35.4729 45.8486H10.4325C9.34655 45.8486 8.46619 46.729 8.46619 47.815Z" fill="#F34B50"/>
<path d="M17.435 49.4116C18.1884 49.4116 18.7737 49.5891 19.1911 49.9442C19.6085 50.2992 19.8172 50.8192 19.8172 51.5041C19.8172 52.1891 19.6085 52.7125 19.1911 53.0736C18.7737 53.4347 18.1884 53.6153 17.435 53.6153H15.9404V55.6983C15.9404 55.7671 15.9153 55.826 15.8655 55.8758C15.8157 55.926 15.7564 55.9507 15.688 55.9507H14.9312C14.8628 55.9507 14.8035 55.926 14.7541 55.8758C14.7039 55.826 14.6792 55.7671 14.6792 55.6983V49.6636C14.6792 49.5952 14.7039 49.5363 14.7541 49.4861C14.8035 49.4363 14.8628 49.4116 14.9312 49.4116H17.435ZM15.9404 52.4476H17.3882C17.7433 52.4476 18.0265 52.3776 18.2382 52.2374C18.4499 52.0971 18.5559 51.8531 18.5559 51.5041C18.5559 51.1552 18.4499 50.9142 18.2382 50.78C18.0265 50.6462 17.7433 50.5793 17.3882 50.5793H15.9404V52.4476ZM23.3951 49.4116C23.8558 49.4116 24.2561 49.4724 24.5955 49.5937C24.935 49.7153 25.2182 49.8879 25.4455 50.1122C25.6728 50.3364 25.8472 50.6075 25.9685 50.9248C26.0901 51.2426 26.1631 51.5976 26.1882 51.9899C26.2129 52.4506 26.2129 52.9117 26.1882 53.3724C26.1631 53.7647 26.0901 54.1197 25.9685 54.4375C25.8472 54.7549 25.6743 55.0259 25.45 55.2501C25.2261 55.4744 24.9471 55.647 24.6142 55.7686C24.2808 55.8899 23.89 55.9507 23.4419 55.9507H21.0875C21.0191 55.9507 20.9598 55.926 20.9103 55.8758C20.8602 55.826 20.8355 55.7671 20.8355 55.6983V49.6636C20.8355 49.5952 20.8602 49.5363 20.9103 49.4861C20.9598 49.4363 21.0191 49.4116 21.0875 49.4116H23.3951ZM24.927 51.9899C24.9144 51.7907 24.8757 51.6052 24.8103 51.4342C24.7449 51.2628 24.6484 51.1134 24.5206 50.9857C24.3929 50.8579 24.2325 50.7584 24.0394 50.6865C23.8463 50.6151 23.616 50.5793 23.3484 50.5793H22.0967V54.783H23.3951C23.6502 54.783 23.8714 54.7472 24.0584 54.6754C24.2451 54.6039 24.4009 54.5059 24.5252 54.3812C24.6499 54.2569 24.7449 54.1071 24.8103 53.933C24.8757 53.7586 24.9144 53.5719 24.927 53.3724C24.9517 52.9117 24.9517 52.4506 24.927 51.9899ZM31.6527 49.4116C31.7215 49.4116 31.7804 49.4363 31.8302 49.4861C31.88 49.5363 31.9051 49.5952 31.9051 49.6636V50.3269C31.9051 50.3957 31.88 50.4547 31.8302 50.5044C31.7804 50.5546 31.7215 50.5793 31.6527 50.5793H28.673V52.3917H31.466C31.5345 52.3917 31.5938 52.4164 31.6436 52.4662C31.6933 52.516 31.7181 52.5753 31.7181 52.6437V53.307C31.7181 53.3754 31.6933 53.4347 31.6436 53.4845C31.5938 53.5343 31.5345 53.5594 31.466 53.5594H28.673V55.6983C28.673 55.7671 28.6479 55.826 28.5981 55.8758C28.5483 55.926 28.489 55.9507 28.4206 55.9507H27.6638C27.5954 55.9507 27.5361 55.926 27.4867 55.8758C27.4365 55.826 27.4118 55.7671 27.4118 55.6983V49.6636C27.4118 49.5952 27.4365 49.5363 27.4867 49.4861C27.5361 49.4363 27.5954 49.4116 27.6638 49.4116H31.6527Z" fill="white"/>
<path d="M37.4383 47.8126V57.5435C37.4383 58.6333 36.5585 59.513 35.4766 59.513H10.4333C9.67043 59.513 9.00866 59.0771 8.68176 58.4465C8.95411 58.5788 9.25763 58.6567 9.57693 58.6567H26.4759C32.0573 58.6567 36.5819 54.1321 36.5819 48.5506V46.9563C36.5819 46.6372 36.504 46.3335 36.3717 46.0688C37.0023 46.3958 37.4383 47.0497 37.4383 47.8126Z" fill="#E53946"/>
<path d="M50.131 35.0743C48.4204 33.6585 46.1416 33.3953 44.0625 32.89C43.4942 32.5006 43.2836 31.7795 42.8205 31.2848C40.531 27.969 38.5257 24.4006 37.1573 20.6269C37.9626 18.4479 38.9731 16.0848 38.3679 13.7374C37.8941 12.1585 35.731 11.5532 34.4783 12.59C33.273 13.5006 33.3994 15.2006 33.5784 16.5374C33.7941 17.9637 34.3678 19.3374 34.7468 20.7216C32.9257 24.9953 30.5784 29.0585 27.631 32.6532C25.3626 33.0322 22.8416 33.3164 21.0784 34.9427C20.1046 35.9479 20.2678 37.7006 21.3468 38.5637C22.2942 39.3848 23.7047 39.2216 24.6837 38.5743C26.3942 37.6532 27.5835 36.0321 28.9099 34.6848C33.5362 34.169 38.2783 34.1585 42.8521 34.9953C44.3626 36.7743 45.8784 38.9743 48.2574 39.5164C49.0469 39.6953 49.9258 39.4322 50.4573 38.8006C51.5047 37.79 51.3679 35.8795 50.131 35.0743ZM22.4625 36.8058C21.731 35.7637 24.6573 35.3637 25.3572 35.2585C24.4889 35.9216 23.1204 37.7427 22.4625 36.8058ZM36.0625 14.1585C37.3467 14.0585 36.1783 16.8006 35.9099 17.4637C35.7836 16.369 34.9099 14.2427 36.0625 14.1585ZM40.9046 32.5374C37.4625 32.1637 34.0047 32.1111 30.5573 32.3795C32.631 29.5532 34.4416 26.4953 35.9257 23.3216C37.3731 26.5479 39.1047 29.648 41.1205 32.5585C41.0467 32.5532 40.9731 32.5427 40.9046 32.5374ZM49.1152 37.0374C48.7152 38.1795 46.7889 36.1479 46.3204 35.669C47.31 35.969 49.4731 36.0111 49.1152 37.0374Z" fill="#F34B50"/>
</svg>
