<svg width="25" height="24" viewBox="0 0 25 24" fill="none" xmlns="http://www.w3.org/2000/svg">
<path d="M19.5 22.75H5.5C4.77082 22.7495 4.07165 22.4596 3.55604 21.944C3.04043 21.4283 2.75053 20.7292 2.75 20V4C2.75053 3.27082 3.04043 2.57165 3.55604 2.05604C4.07165 1.54043 4.77082 1.25053 5.5 1.25H16.539C16.9515 1.24925 17.3588 1.34167 17.7306 1.52037C18.1023 1.69907 18.4289 1.95942 18.686 2.282L21.647 5.982C22.036 6.4701 22.2475 7.07588 22.247 7.7V20C22.2465 20.7287 21.957 21.4274 21.442 21.9429C20.9271 22.4584 20.2287 22.7487 19.5 22.75ZM5.5 2.75C5.16864 2.75053 4.85101 2.8824 4.6167 3.1167C4.38239 3.35101 4.25053 3.66864 4.25 4V20C4.25053 20.3314 4.38239 20.649 4.6167 20.8833C4.85101 21.1176 5.16864 21.2495 5.5 21.25H19.5C19.8314 21.2495 20.149 21.1176 20.3833 20.8833C20.6176 20.649 20.7495 20.3314 20.75 20V7.7C20.7493 7.41639 20.6532 7.14126 20.477 6.919L17.515 3.219C17.3982 3.07232 17.2497 2.95395 17.0807 2.87274C16.9117 2.79152 16.7265 2.74956 16.539 2.75H5.5Z" fill="#ffffff"/>
<path d="M14.5 6.75H8.5C8.03603 6.74947 7.59122 6.56493 7.26315 6.23685C6.93507 5.90878 6.75053 5.46397 6.75 5V2C6.75 1.80109 6.82902 1.61032 6.96967 1.46967C7.11032 1.32902 7.30109 1.25 7.5 1.25H15.5C15.6989 1.25 15.8897 1.32902 16.0303 1.46967C16.171 1.61032 16.25 1.80109 16.25 2V5C16.2495 5.46397 16.0649 5.90878 15.7369 6.23685C15.4088 6.56493 14.964 6.74947 14.5 6.75ZM8.25 2.75V5C8.25 5.0663 8.27634 5.12989 8.32322 5.17678C8.37011 5.22366 8.4337 5.25 8.5 5.25H14.5C14.5663 5.25 14.6299 5.22366 14.6768 5.17678C14.7237 5.12989 14.75 5.0663 14.75 5V2.75H8.25ZM18.5 22.75H6.5C6.30109 22.75 6.11032 22.671 5.96967 22.5303C5.82902 22.3897 5.75 22.1989 5.75 22V14C5.75053 13.536 5.93507 13.0912 6.26315 12.7631C6.59122 12.4351 7.03603 12.2505 7.5 12.25H17.5C17.964 12.2505 18.4088 12.4351 18.7369 12.7631C19.0649 13.0912 19.2495 13.536 19.25 14V22C19.25 22.1989 19.171 22.3897 19.0303 22.5303C18.8897 22.671 18.6989 22.75 18.5 22.75ZM7.25 21.25H17.75V14C17.75 13.9337 17.7237 13.8701 17.6768 13.8232C17.6299 13.7763 17.5663 13.75 17.5 13.75H7.5C7.4337 13.75 7.37011 13.7763 7.32322 13.8232C7.27634 13.8701 7.25 13.9337 7.25 14V21.25Z" fill="#ffffff"/>
<path d="M15.5 16.75H9.5C9.30109 16.75 9.11032 16.671 8.96967 16.5303C8.82902 16.3897 8.75 16.1989 8.75 16C8.75 15.8011 8.82902 15.6103 8.96967 15.4697C9.11032 15.329 9.30109 15.25 9.5 15.25H15.5C15.6989 15.25 15.8897 15.329 16.0303 15.4697C16.171 15.6103 16.25 15.8011 16.25 16C16.25 16.1989 16.171 16.3897 16.0303 16.5303C15.8897 16.671 15.6989 16.75 15.5 16.75ZM15.5 19.75H9.5C9.30109 19.75 9.11032 19.671 8.96967 19.5303C8.82902 19.3897 8.75 19.1989 8.75 19C8.75 18.8011 8.82902 18.6103 8.96967 18.4697C9.11032 18.329 9.30109 18.25 9.5 18.25H15.5C15.6989 18.25 15.8897 18.329 16.0303 18.4697C16.171 18.6103 16.25 18.8011 16.25 19C16.25 19.1989 16.171 19.3897 16.0303 19.5303C15.8897 19.671 15.6989 19.75 15.5 19.75Z" fill="#ffffff"/>
</svg>
