<svg width="43" height="43" viewBox="0 0 43 43" fill="none" xmlns="http://www.w3.org/2000/svg">
<g clip-path="url(#clip0_1161_32262)">
<path d="M14.5165 17.748L21.0366 24.2681L27.5567 17.748" stroke="white" stroke-width="2.62615" stroke-miterlimit="10" stroke-linecap="round" stroke-linejoin="round"/>
<path d="M21.037 -0.000106812C9.48191 -0.000106812 0.027771 9.45404 0.027771 21.0091C0.027771 32.5642 9.48191 42.0183 21.037 42.0183C25.7641 42.0183 30.176 40.4426 33.9576 37.6064C34.3778 37.2912 34.4829 36.5559 34.1677 36.1357C33.8526 35.7155 33.1173 35.6105 32.6971 35.9256C29.3356 38.5518 25.2388 39.9174 21.037 39.9174C10.6374 39.9174 2.12869 31.4087 2.12869 21.0091C2.12869 10.6095 10.6374 2.10081 21.037 2.10081C31.4365 2.10081 39.9453 10.6095 39.9453 21.0091C39.9453 24.3706 38.9999 27.732 37.3191 30.6733C37.004 31.1986 37.2141 31.8288 37.6343 32.144C38.1595 32.4591 38.7898 32.249 39.1049 31.8288C40.9957 28.4674 42.0462 24.7908 42.0462 21.0091C42.0462 9.45404 32.592 -0.000106812 21.037 -0.000106812Z" fill="white"/>
</g>
<defs>
<clipPath id="clip0_1161_32262">
<rect width="42.0184" height="42.0184" rx="21.0092" transform="matrix(1 0 0 -1 0.0279541 42.0183)" fill="white"/>
</clipPath>
</defs>
</svg>
